<?xml version='1.0' encoding='utf-8'?>
<svg height="631.00mm" viewBox="0.0 0.0 471.90 631.00" width="471.90mm" xmlns="http://www.w3.org/2000/svg" xmlns:cc="http://creativecommons.org/ns#" xmlns:dc="http://purl.org/dc/elements/1.1/" xmlns:inkscape="http://www.inkscape.org/namespaces/inkscape" xmlns:rdf="http://www.w3.org/1999/02/22-rdf-syntax-ns#" xmlns:svg="http://www.w3.org/2000/svg" xmlns:xlink="http://www.w3.org/1999/xlink">
<!--
UniversalBox - Box with various options for different styles and lids

Created with Boxes.py (https://boxes.hackerspace-bamberg.de/)
Creation date: 2025-06-04 20:16:42
Command line (remove spaces between dashes): boxes UniversalBox - -top_edge=L - -bottom_edge=s - -x=250 - -y=200 '- -vertical_edges=finger holes' - -labels=0
Url: https://boxes.hackerspace-bamberg.de/UniversalBox?FingerJoint_style=rectangular&FingerJoint_surroundingspaces=2.0&FingerJoint_bottom_lip=0.0&FingerJoint_edge_width=1.0&FingerJoint_extra_length=0.0&FingerJoint_finger=2.0&FingerJoint_play=0.0&FingerJoint_space=2.0&FingerJoint_width=1.0&Stackable_angle=60&Stackable_bottom_stabilizers=0.0&Stackable_height=2.0&Stackable_holedistance=1.0&Stackable_width=4.0&Hinge_grip_percentage=0&Hinge_outset=0&Hinge_outset=1&Hinge_pinwidth=0.5&Hinge_axle=2.0&Hinge_grip_length=0&Hinge_hingestrength=1&CabinetHinge_bore=3.2&CabinetHinge_eyes_per_hinge=5&CabinetHinge_hinges=2&CabinetHinge_style=inside&CabinetHinge_eye=1.5&CabinetHinge_play=0.05&CabinetHinge_spacing=2.0&SlideOnLid_hole_width=0&SlideOnLid_second_pin=0&SlideOnLid_second_pin=1&SlideOnLid_spring=both&SlideOnLid_style=rectangular&SlideOnLid_surroundingspaces=2.0&SlideOnLid_bottom_lip=0.0&SlideOnLid_edge_width=1.0&SlideOnLid_extra_length=0.0&SlideOnLid_finger=3.0&SlideOnLid_play=0.05&SlideOnLid_space=2.0&SlideOnLid_width=1.0&Click_angle=5.0&Click_bottom_radius=0.1&Click_depth=3.0&RoundedTriangleEdge_height=50.0&RoundedTriangleEdge_r_hole=2.0&RoundedTriangleEdge_radius=30.0&RoundedTriangleEdge_outset=1.0&Mounting_d_head=6.5&Mounting_d_shaft=3.0&Mounting_margin=0.125&Mounting_num=2&Mounting_side=back&Mounting_style=straight+edge%2C+within&HandleEdge_height=20.0&HandleEdge_hole_height=75.0&HandleEdge_hole_width=40%3A40&HandleEdge_on_sides=0&HandleEdge_on_sides=1&HandleEdge_radius=10.0&HandleEdge_outset=1.0&Flex_stretch=1.05&Flex_connection=1.0&Flex_distance=0.5&Flex_width=5.0&Lid_handle=none&Lid_style=none&Lid_handle_height=8.0&Lid_height=4.0&Lid_play=0.1&top_edge=L&bottom_edge=s&x=250&y=200&h=100.0&outside=0&outside=1&vertical_edges=finger+holes&thickness=3.0&format=svg&tabs=0.0&qr_code=0&debug=0&labels=0&reference=100.0&inner_corners=loop&burn=0.1&language=en&render=2
Url short: https://boxes.hackerspace-bamberg.de/UniversalBox?top_edge=L&bottom_edge=s&x=250&y=200&vertical_edges=finger+holes&labels=0
SettingsUrl: https://boxes.hackerspace-bamberg.de/UniversalBox?FingerJoint_style=rectangular&FingerJoint_surroundingspaces=2.0&FingerJoint_bottom_lip=0.0&FingerJoint_edge_width=1.0&FingerJoint_extra_length=0.0&FingerJoint_finger=2.0&FingerJoint_play=0.0&FingerJoint_space=2.0&FingerJoint_width=1.0&Stackable_angle=60&Stackable_bottom_stabilizers=0.0&Stackable_height=2.0&Stackable_holedistance=1.0&Stackable_width=4.0&Hinge_grip_percentage=0&Hinge_outset=0&Hinge_outset=1&Hinge_pinwidth=0.5&Hinge_axle=2.0&Hinge_grip_length=0&Hinge_hingestrength=1&CabinetHinge_bore=3.2&CabinetHinge_eyes_per_hinge=5&CabinetHinge_hinges=2&CabinetHinge_style=inside&CabinetHinge_eye=1.5&CabinetHinge_play=0.05&CabinetHinge_spacing=2.0&SlideOnLid_hole_width=0&SlideOnLid_second_pin=0&SlideOnLid_second_pin=1&SlideOnLid_spring=both&SlideOnLid_style=rectangular&SlideOnLid_surroundingspaces=2.0&SlideOnLid_bottom_lip=0.0&SlideOnLid_edge_width=1.0&SlideOnLid_extra_length=0.0&SlideOnLid_finger=3.0&SlideOnLid_play=0.05&SlideOnLid_space=2.0&SlideOnLid_width=1.0&Click_angle=5.0&Click_bottom_radius=0.1&Click_depth=3.0&RoundedTriangleEdge_height=50.0&RoundedTriangleEdge_r_hole=2.0&RoundedTriangleEdge_radius=30.0&RoundedTriangleEdge_outset=1.0&Mounting_d_head=6.5&Mounting_d_shaft=3.0&Mounting_margin=0.125&Mounting_num=2&Mounting_side=back&Mounting_style=straight+edge%2C+within&HandleEdge_height=20.0&HandleEdge_hole_height=75.0&HandleEdge_hole_width=40%3A40&HandleEdge_on_sides=0&HandleEdge_on_sides=1&HandleEdge_radius=10.0&HandleEdge_outset=1.0&Flex_stretch=1.05&Flex_connection=1.0&Flex_distance=0.5&Flex_width=5.0&Lid_handle=none&Lid_style=none&Lid_handle_height=8.0&Lid_height=4.0&Lid_play=0.1&top_edge=L&bottom_edge=s&x=250&y=200&h=100.0&outside=0&outside=1&vertical_edges=finger+holes&thickness=3.0&format=svg&tabs=0.0&qr_code=0&debug=0&labels=0&reference=100.0&inner_corners=loop&burn=0.1&language=en&render=2
SettingsUrl short: https://boxes.hackerspace-bamberg.de/UniversalBox?top_edge=L&bottom_edge=s&x=250&y=200&vertical_edges=finger+holes&labels=0
-->
<title>UniversalBox</title>
<metadata>
<rdf:RDF><cc:Work>
<dc:title>Box - UniversalBox</dc:title>
<dc:date>2025-06-04 20:16:42</dc:date>
<dc:source>https://boxes.hackerspace-bamberg.de/UniversalBox?FingerJoint_style=rectangular&amp;FingerJoint_surroundingspaces=2.0&amp;FingerJoint_bottom_lip=0.0&amp;FingerJoint_edge_width=1.0&amp;FingerJoint_extra_length=0.0&amp;FingerJoint_finger=2.0&amp;FingerJoint_play=0.0&amp;FingerJoint_space=2.0&amp;FingerJoint_width=1.0&amp;Stackable_angle=60&amp;Stackable_bottom_stabilizers=0.0&amp;Stackable_height=2.0&amp;Stackable_holedistance=1.0&amp;Stackable_width=4.0&amp;Hinge_grip_percentage=0&amp;Hinge_outset=0&amp;Hinge_outset=1&amp;Hinge_pinwidth=0.5&amp;Hinge_axle=2.0&amp;Hinge_grip_length=0&amp;Hinge_hingestrength=1&amp;CabinetHinge_bore=3.2&amp;CabinetHinge_eyes_per_hinge=5&amp;CabinetHinge_hinges=2&amp;CabinetHinge_style=inside&amp;CabinetHinge_eye=1.5&amp;CabinetHinge_play=0.05&amp;CabinetHinge_spacing=2.0&amp;SlideOnLid_hole_width=0&amp;SlideOnLid_second_pin=0&amp;SlideOnLid_second_pin=1&amp;SlideOnLid_spring=both&amp;SlideOnLid_style=rectangular&amp;SlideOnLid_surroundingspaces=2.0&amp;SlideOnLid_bottom_lip=0.0&amp;SlideOnLid_edge_width=1.0&amp;SlideOnLid_extra_length=0.0&amp;SlideOnLid_finger=3.0&amp;SlideOnLid_play=0.05&amp;SlideOnLid_space=2.0&amp;SlideOnLid_width=1.0&amp;Click_angle=5.0&amp;Click_bottom_radius=0.1&amp;Click_depth=3.0&amp;RoundedTriangleEdge_height=50.0&amp;RoundedTriangleEdge_r_hole=2.0&amp;RoundedTriangleEdge_radius=30.0&amp;RoundedTriangleEdge_outset=1.0&amp;Mounting_d_head=6.5&amp;Mounting_d_shaft=3.0&amp;Mounting_margin=0.125&amp;Mounting_num=2&amp;Mounting_side=back&amp;Mounting_style=straight+edge%2C+within&amp;HandleEdge_height=20.0&amp;HandleEdge_hole_height=75.0&amp;HandleEdge_hole_width=40%3A40&amp;HandleEdge_on_sides=0&amp;HandleEdge_on_sides=1&amp;HandleEdge_radius=10.0&amp;HandleEdge_outset=1.0&amp;Flex_stretch=1.05&amp;Flex_connection=1.0&amp;Flex_distance=0.5&amp;Flex_width=5.0&amp;Lid_handle=none&amp;Lid_style=none&amp;Lid_handle_height=8.0&amp;Lid_height=4.0&amp;Lid_play=0.1&amp;top_edge=L&amp;bottom_edge=s&amp;x=250&amp;y=200&amp;h=100.0&amp;outside=0&amp;outside=1&amp;vertical_edges=finger+holes&amp;thickness=3.0&amp;format=svg&amp;tabs=0.0&amp;qr_code=0&amp;debug=0&amp;labels=0&amp;reference=100.0&amp;inner_corners=loop&amp;burn=0.1&amp;language=en&amp;render=2</dc:source>
<dc:source>https://boxes.hackerspace-bamberg.de/UniversalBox?top_edge=L&amp;bottom_edge=s&amp;x=250&amp;y=200&amp;vertical_edges=finger+holes&amp;labels=0</dc:source>
<dc:description>Box with various options for different styles and lids

Created with Boxes.py (https://boxes.hackerspace-bamberg.de/)
Command line: boxes UniversalBox --FingerJoint_style=rectangular --FingerJoint_surroundingspaces=2.0 --FingerJoint_bottom_lip=0.0 --FingerJoint_edge_width=1.0 --FingerJoint_extra_length=0.0 --FingerJoint_finger=2.0 --FingerJoint_play=0.0 --FingerJoint_space=2.0 --FingerJoint_width=1.0 --Stackable_angle=60 --Stackable_bottom_stabilizers=0.0 --Stackable_height=2.0 --Stackable_holedistance=1.0 --Stackable_width=4.0 --Hinge_grip_percentage=0 --Hinge_outset=0 --Hinge_outset=1 --Hinge_pinwidth=0.5 --Hinge_axle=2.0 --Hinge_grip_length=0 --Hinge_hingestrength=1 --CabinetHinge_bore=3.2 --CabinetHinge_eyes_per_hinge=5 --CabinetHinge_hinges=2 --CabinetHinge_style=inside --CabinetHinge_eye=1.5 --CabinetHinge_play=0.05 --CabinetHinge_spacing=2.0 --SlideOnLid_hole_width=0 --SlideOnLid_second_pin=0 --SlideOnLid_second_pin=1 --SlideOnLid_spring=both --SlideOnLid_style=rectangular --SlideOnLid_surroundingspaces=2.0 --SlideOnLid_bottom_lip=0.0 --SlideOnLid_edge_width=1.0 --SlideOnLid_extra_length=0.0 --SlideOnLid_finger=3.0 --SlideOnLid_play=0.05 --SlideOnLid_space=2.0 --SlideOnLid_width=1.0 --Click_angle=5.0 --Click_bottom_radius=0.1 --Click_depth=3.0 --RoundedTriangleEdge_height=50.0 --RoundedTriangleEdge_r_hole=2.0 --RoundedTriangleEdge_radius=30.0 --RoundedTriangleEdge_outset=1.0 --Mounting_d_head=6.5 --Mounting_d_shaft=3.0 --Mounting_margin=0.125 --Mounting_num=2 --Mounting_side=back '--Mounting_style=straight edge, within' --HandleEdge_height=20.0 --HandleEdge_hole_height=75.0 --HandleEdge_hole_width=40:40 --HandleEdge_on_sides=0 --HandleEdge_on_sides=1 --HandleEdge_radius=10.0 --HandleEdge_outset=1.0 --Flex_stretch=1.05 --Flex_connection=1.0 --Flex_distance=0.5 --Flex_width=5.0 --Lid_handle=none --Lid_style=none --Lid_handle_height=8.0 --Lid_height=4.0 --Lid_play=0.1 --top_edge=L --bottom_edge=s --x=250 --y=200 --h=100.0 --outside=0 --outside=1 '--vertical_edges=finger holes' --thickness=3.0 --format=svg --tabs=0.0 --qr_code=0 --debug=0 --labels=0 --reference=100.0 --inner_corners=loop --burn=0.1
Command line short: boxes UniversalBox --top_edge=L --bottom_edge=s --x=250 --y=200 '--vertical_edges=finger holes' --labels=0
Url: https://boxes.hackerspace-bamberg.de/UniversalBox?FingerJoint_style=rectangular&amp;FingerJoint_surroundingspaces=2.0&amp;FingerJoint_bottom_lip=0.0&amp;FingerJoint_edge_width=1.0&amp;FingerJoint_extra_length=0.0&amp;FingerJoint_finger=2.0&amp;FingerJoint_play=0.0&amp;FingerJoint_space=2.0&amp;FingerJoint_width=1.0&amp;Stackable_angle=60&amp;Stackable_bottom_stabilizers=0.0&amp;Stackable_height=2.0&amp;Stackable_holedistance=1.0&amp;Stackable_width=4.0&amp;Hinge_grip_percentage=0&amp;Hinge_outset=0&amp;Hinge_outset=1&amp;Hinge_pinwidth=0.5&amp;Hinge_axle=2.0&amp;Hinge_grip_length=0&amp;Hinge_hingestrength=1&amp;CabinetHinge_bore=3.2&amp;CabinetHinge_eyes_per_hinge=5&amp;CabinetHinge_hinges=2&amp;CabinetHinge_style=inside&amp;CabinetHinge_eye=1.5&amp;CabinetHinge_play=0.05&amp;CabinetHinge_spacing=2.0&amp;SlideOnLid_hole_width=0&amp;SlideOnLid_second_pin=0&amp;SlideOnLid_second_pin=1&amp;SlideOnLid_spring=both&amp;SlideOnLid_style=rectangular&amp;SlideOnLid_surroundingspaces=2.0&amp;SlideOnLid_bottom_lip=0.0&amp;SlideOnLid_edge_width=1.0&amp;SlideOnLid_extra_length=0.0&amp;SlideOnLid_finger=3.0&amp;SlideOnLid_play=0.05&amp;SlideOnLid_space=2.0&amp;SlideOnLid_width=1.0&amp;Click_angle=5.0&amp;Click_bottom_radius=0.1&amp;Click_depth=3.0&amp;RoundedTriangleEdge_height=50.0&amp;RoundedTriangleEdge_r_hole=2.0&amp;RoundedTriangleEdge_radius=30.0&amp;RoundedTriangleEdge_outset=1.0&amp;Mounting_d_head=6.5&amp;Mounting_d_shaft=3.0&amp;Mounting_margin=0.125&amp;Mounting_num=2&amp;Mounting_side=back&amp;Mounting_style=straight+edge%2C+within&amp;HandleEdge_height=20.0&amp;HandleEdge_hole_height=75.0&amp;HandleEdge_hole_width=40%3A40&amp;HandleEdge_on_sides=0&amp;HandleEdge_on_sides=1&amp;HandleEdge_radius=10.0&amp;HandleEdge_outset=1.0&amp;Flex_stretch=1.05&amp;Flex_connection=1.0&amp;Flex_distance=0.5&amp;Flex_width=5.0&amp;Lid_handle=none&amp;Lid_style=none&amp;Lid_handle_height=8.0&amp;Lid_height=4.0&amp;Lid_play=0.1&amp;top_edge=L&amp;bottom_edge=s&amp;x=250&amp;y=200&amp;h=100.0&amp;outside=0&amp;outside=1&amp;vertical_edges=finger+holes&amp;thickness=3.0&amp;format=svg&amp;tabs=0.0&amp;qr_code=0&amp;debug=0&amp;labels=0&amp;reference=100.0&amp;inner_corners=loop&amp;burn=0.1&amp;language=en&amp;render=2
Url short: https://boxes.hackerspace-bamberg.de/UniversalBox?top_edge=L&amp;bottom_edge=s&amp;x=250&amp;y=200&amp;vertical_edges=finger+holes&amp;labels=0
SettingsUrl: https://boxes.hackerspace-bamberg.de/UniversalBox?FingerJoint_style=rectangular&amp;FingerJoint_surroundingspaces=2.0&amp;FingerJoint_bottom_lip=0.0&amp;FingerJoint_edge_width=1.0&amp;FingerJoint_extra_length=0.0&amp;FingerJoint_finger=2.0&amp;FingerJoint_play=0.0&amp;FingerJoint_space=2.0&amp;FingerJoint_width=1.0&amp;Stackable_angle=60&amp;Stackable_bottom_stabilizers=0.0&amp;Stackable_height=2.0&amp;Stackable_holedistance=1.0&amp;Stackable_width=4.0&amp;Hinge_grip_percentage=0&amp;Hinge_outset=0&amp;Hinge_outset=1&amp;Hinge_pinwidth=0.5&amp;Hinge_axle=2.0&amp;Hinge_grip_length=0&amp;Hinge_hingestrength=1&amp;CabinetHinge_bore=3.2&amp;CabinetHinge_eyes_per_hinge=5&amp;CabinetHinge_hinges=2&amp;CabinetHinge_style=inside&amp;CabinetHinge_eye=1.5&amp;CabinetHinge_play=0.05&amp;CabinetHinge_spacing=2.0&amp;SlideOnLid_hole_width=0&amp;SlideOnLid_second_pin=0&amp;SlideOnLid_second_pin=1&amp;SlideOnLid_spring=both&amp;SlideOnLid_style=rectangular&amp;SlideOnLid_surroundingspaces=2.0&amp;SlideOnLid_bottom_lip=0.0&amp;SlideOnLid_edge_width=1.0&amp;SlideOnLid_extra_length=0.0&amp;SlideOnLid_finger=3.0&amp;SlideOnLid_play=0.05&amp;SlideOnLid_space=2.0&amp;SlideOnLid_width=1.0&amp;Click_angle=5.0&amp;Click_bottom_radius=0.1&amp;Click_depth=3.0&amp;RoundedTriangleEdge_height=50.0&amp;RoundedTriangleEdge_r_hole=2.0&amp;RoundedTriangleEdge_radius=30.0&amp;RoundedTriangleEdge_outset=1.0&amp;Mounting_d_head=6.5&amp;Mounting_d_shaft=3.0&amp;Mounting_margin=0.125&amp;Mounting_num=2&amp;Mounting_side=back&amp;Mounting_style=straight+edge%2C+within&amp;HandleEdge_height=20.0&amp;HandleEdge_hole_height=75.0&amp;HandleEdge_hole_width=40%3A40&amp;HandleEdge_on_sides=0&amp;HandleEdge_on_sides=1&amp;HandleEdge_radius=10.0&amp;HandleEdge_outset=1.0&amp;Flex_stretch=1.05&amp;Flex_connection=1.0&amp;Flex_distance=0.5&amp;Flex_width=5.0&amp;Lid_handle=none&amp;Lid_style=none&amp;Lid_handle_height=8.0&amp;Lid_height=4.0&amp;Lid_play=0.1&amp;top_edge=L&amp;bottom_edge=s&amp;x=250&amp;y=200&amp;h=100.0&amp;outside=0&amp;outside=1&amp;vertical_edges=finger+holes&amp;thickness=3.0&amp;format=svg&amp;tabs=0.0&amp;qr_code=0&amp;debug=0&amp;labels=0&amp;reference=100.0&amp;inner_corners=loop&amp;burn=0.1&amp;language=en&amp;render=2
SettingsUrl short: https://boxes.hackerspace-bamberg.de/UniversalBox?top_edge=L&amp;bottom_edge=s&amp;x=250&amp;y=200&amp;vertical_edges=finger+holes&amp;labels=0
</dc:description>
</cc:Work></rdf:RDF></metadata>
<g id="p-0" style="fill:none;stroke-linecap:round;stroke-linejoin:round;">
  <path d="M 10.100 621.000 H 110.100 V 611.000 H 10.100 V 621.000 Z" stroke="rgb(0,0,0)" stroke-width="0.20" />
  <text dominant-baseline="hanging" font-size="6px" style="font-family: sans-serif ; font-weight: normal; font-style: normal; fill: rgb(255,0,0)" text-anchor="middle" transform="matrix( 1.000 0.000 0.000 1.000 60.100 613.000 )">100.0mm, burn:0.10mm</text>
</g>
<g id="p-1" style="fill:none;stroke-linecap:round;stroke-linejoin:round;">
  <path d="M 27.100 600.200 H 24.200 C 24.100 600.200 24.200 600.300 24.200 600.200 V 597.400 C 24.200 597.300 24.100 597.400 24.200 597.400 H 30.000 C 30.100 597.400 30.000 597.300 30.000 597.400 V 600.200 C 30.000 600.300 30.100 600.200 30.000 600.200 H 27.100 Z" stroke="rgb(0,0,255)" stroke-width="0.20" />
  <path d="M 39.100 600.200 H 36.200 C 36.100 600.200 36.200 600.300 36.200 600.200 V 597.400 C 36.200 597.300 36.100 597.400 36.200 597.400 H 42.000 C 42.100 597.400 42.000 597.300 42.000 597.400 V 600.200 C 42.000 600.300 42.100 600.200 42.000 600.200 H 39.100 Z" stroke="rgb(0,0,255)" stroke-width="0.20" />
  <path d="M 51.100 600.200 H 48.200 C 48.100 600.200 48.200 600.300 48.200 600.200 V 597.400 C 48.200 597.300 48.100 597.400 48.200 597.400 H 54.000 C 54.100 597.400 54.000 597.300 54.000 597.400 V 600.200 C 54.000 600.300 54.100 600.200 54.000 600.200 H 51.100 Z" stroke="rgb(0,0,255)" stroke-width="0.20" />
  <path d="M 63.100 600.200 H 60.200 C 60.100 600.200 60.200 600.300 60.200 600.200 V 597.400 C 60.200 597.300 60.100 597.400 60.200 597.400 H 66.000 C 66.100 597.400 66.000 597.300 66.000 597.400 V 600.200 C 66.000 600.300 66.100 600.200 66.000 600.200 H 63.100 Z" stroke="rgb(0,0,255)" stroke-width="0.20" />
  <path d="M 75.100 600.200 H 72.200 C 72.100 600.200 72.200 600.300 72.200 600.200 V 597.400 C 72.200 597.300 72.100 597.400 72.200 597.400 H 78.000 C 78.100 597.400 78.000 597.300 78.000 597.400 V 600.200 C 78.000 600.300 78.100 600.200 78.000 600.200 H 75.100 Z" stroke="rgb(0,0,255)" stroke-width="0.20" />
  <path d="M 87.100 600.200 H 84.200 C 84.100 600.200 84.200 600.300 84.200 600.200 V 597.400 C 84.200 597.300 84.100 597.400 84.200 597.400 H 90.000 C 90.100 597.400 90.000 597.300 90.000 597.400 V 600.200 C 90.000 600.300 90.100 600.200 90.000 600.200 H 87.100 Z" stroke="rgb(0,0,255)" stroke-width="0.20" />
  <path d="M 99.100 600.200 H 96.200 C 96.100 600.200 96.200 600.300 96.200 600.200 V 597.400 C 96.200 597.300 96.100 597.400 96.200 597.400 H 102.000 C 102.100 597.400 102.000 597.300 102.000 597.400 V 600.200 C 102.000 600.300 102.100 600.200 102.000 600.200 H 99.100 Z" stroke="rgb(0,0,255)" stroke-width="0.20" />
  <path d="M 111.100 600.200 H 108.200 C 108.100 600.200 108.200 600.300 108.200 600.200 V 597.400 C 108.200 597.300 108.100 597.400 108.200 597.400 H 114.000 C 114.100 597.400 114.000 597.300 114.000 597.400 V 600.200 C 114.000 600.300 114.100 600.200 114.000 600.200 H 111.100 Z" stroke="rgb(0,0,255)" stroke-width="0.20" />
  <path d="M 123.100 600.200 H 120.200 C 120.100 600.200 120.200 600.300 120.200 600.200 V 597.400 C 120.200 597.300 120.100 597.400 120.200 597.400 H 126.000 C 126.100 597.400 126.000 597.300 126.000 597.400 V 600.200 C 126.000 600.300 126.100 600.200 126.000 600.200 H 123.100 Z" stroke="rgb(0,0,255)" stroke-width="0.20" />
  <path d="M 135.100 600.200 H 132.200 C 132.100 600.200 132.200 600.300 132.200 600.200 V 597.400 C 132.200 597.300 132.100 597.400 132.200 597.400 H 138.000 C 138.100 597.400 138.000 597.300 138.000 597.400 V 600.200 C 138.000 600.300 138.100 600.200 138.000 600.200 H 135.100 Z" stroke="rgb(0,0,255)" stroke-width="0.20" />
  <path d="M 147.100 600.200 H 144.200 C 144.100 600.200 144.200 600.300 144.200 600.200 V 597.400 C 144.200 597.300 144.100 597.400 144.200 597.400 H 150.000 C 150.100 597.400 150.000 597.300 150.000 597.400 V 600.200 C 150.000 600.300 150.100 600.200 150.000 600.200 H 147.100 Z" stroke="rgb(0,0,255)" stroke-width="0.20" />
  <path d="M 159.100 600.200 H 156.200 C 156.100 600.200 156.200 600.300 156.200 600.200 V 597.400 C 156.200 597.300 156.100 597.400 156.200 597.400 H 162.000 C 162.100 597.400 162.000 597.300 162.000 597.400 V 600.200 C 162.000 600.300 162.100 600.200 162.000 600.200 H 159.100 Z" stroke="rgb(0,0,255)" stroke-width="0.20" />
  <path d="M 171.100 600.200 H 168.200 C 168.100 600.200 168.200 600.300 168.200 600.200 V 597.400 C 168.200 597.300 168.100 597.400 168.200 597.400 H 174.000 C 174.100 597.400 174.000 597.300 174.000 597.400 V 600.200 C 174.000 600.300 174.100 600.200 174.000 600.200 H 171.100 Z" stroke="rgb(0,0,255)" stroke-width="0.20" />
  <path d="M 183.100 600.200 H 180.200 C 180.100 600.200 180.200 600.300 180.200 600.200 V 597.400 C 180.200 597.300 180.100 597.400 180.200 597.400 H 186.000 C 186.100 597.400 186.000 597.300 186.000 597.400 V 600.200 C 186.000 600.300 186.100 600.200 186.000 600.200 H 183.100 Z" stroke="rgb(0,0,255)" stroke-width="0.20" />
  <path d="M 195.100 600.200 H 192.200 C 192.100 600.200 192.200 600.300 192.200 600.200 V 597.400 C 192.200 597.300 192.100 597.400 192.200 597.400 H 198.000 C 198.100 597.400 198.000 597.300 198.000 597.400 V 600.200 C 198.000 600.300 198.100 600.200 198.000 600.200 H 195.100 Z" stroke="rgb(0,0,255)" stroke-width="0.20" />
  <path d="M 207.100 600.200 H 204.200 C 204.100 600.200 204.200 600.300 204.200 600.200 V 597.400 C 204.200 597.300 204.100 597.400 204.200 597.400 H 210.000 C 210.100 597.400 210.000 597.300 210.000 597.400 V 600.200 C 210.000 600.300 210.100 600.200 210.000 600.200 H 207.100 Z" stroke="rgb(0,0,255)" stroke-width="0.20" />
  <path d="M 219.100 600.200 H 216.200 C 216.100 600.200 216.200 600.300 216.200 600.200 V 597.400 C 216.200 597.300 216.100 597.400 216.200 597.400 H 222.000 C 222.100 597.400 222.000 597.300 222.000 597.400 V 600.200 C 222.000 600.300 222.100 600.200 222.000 600.200 H 219.100 Z" stroke="rgb(0,0,255)" stroke-width="0.20" />
  <path d="M 231.100 600.200 H 228.200 C 228.100 600.200 228.200 600.300 228.200 600.200 V 597.400 C 228.200 597.300 228.100 597.400 228.200 597.400 H 234.000 C 234.100 597.400 234.000 597.300 234.000 597.400 V 600.200 C 234.000 600.300 234.100 600.200 234.000 600.200 H 231.100 Z" stroke="rgb(0,0,255)" stroke-width="0.20" />
  <path d="M 243.100 600.200 H 240.200 C 240.100 600.200 240.200 600.300 240.200 600.200 V 597.400 C 240.200 597.300 240.100 597.400 240.200 597.400 H 246.000 C 246.100 597.400 246.000 597.300 246.000 597.400 V 600.200 C 246.000 600.300 246.100 600.200 246.000 600.200 H 243.100 Z" stroke="rgb(0,0,255)" stroke-width="0.20" />
  <path d="M 16.100 609.300 H 28.100 C 29.171 609.300 30.223 609.018 31.150 608.483 C 32.077 607.947 32.847 607.177 33.383 606.250 C 33.901 605.353 34.645 604.608 35.542 604.090 C 36.439 603.573 37.457 603.300 38.492 603.300 H 231.708 C 232.743 603.300 233.761 603.573 234.658 604.090 C 235.555 604.608 236.299 605.353 236.817 606.250 C 237.353 607.177 238.123 607.947 239.050 608.483 C 239.977 609.018 241.029 609.300 242.100 609.300 H 254.100 H 260.100 C 260.155 609.300 260.200 609.255 260.200 609.200 V 515.200 C 260.200 515.145 260.155 515.100 260.100 515.100 H 254.100 H 16.100 H 10.100 C 10.045 515.100 10.000 515.145 10.000 515.200 V 609.200 C 10.000 609.255 10.045 609.300 10.100 609.300 H 16.100 Z" stroke="rgb(0,0,0)" stroke-width="0.20" />
  <path d="M 257.000 598.200 V 601.100 C 257.000 601.200 257.100 601.100 257.000 601.100 H 254.200 C 254.100 601.100 254.200 601.200 254.200 601.100 V 595.300 C 254.200 595.200 254.100 595.300 254.200 595.300 H 257.000 C 257.100 595.300 257.000 595.200 257.000 595.300 V 598.200 Z" stroke="rgb(0,0,255)" stroke-width="0.20" />
  <path d="M 257.000 586.200 V 589.100 C 257.000 589.200 257.100 589.100 257.000 589.100 H 254.200 C 254.100 589.100 254.200 589.200 254.200 589.100 V 583.300 C 254.200 583.200 254.100 583.300 254.200 583.300 H 257.000 C 257.100 583.300 257.000 583.200 257.000 583.300 V 586.200 Z" stroke="rgb(0,0,255)" stroke-width="0.20" />
  <path d="M 257.000 574.200 V 577.100 C 257.000 577.200 257.100 577.100 257.000 577.100 H 254.200 C 254.100 577.100 254.200 577.200 254.200 577.100 V 571.300 C 254.200 571.200 254.100 571.300 254.200 571.300 H 257.000 C 257.100 571.300 257.000 571.200 257.000 571.300 V 574.200 Z" stroke="rgb(0,0,255)" stroke-width="0.20" />
  <path d="M 257.000 562.200 V 565.100 C 257.000 565.200 257.100 565.100 257.000 565.100 H 254.200 C 254.100 565.100 254.200 565.200 254.200 565.100 V 559.300 C 254.200 559.200 254.100 559.300 254.200 559.300 H 257.000 C 257.100 559.300 257.000 559.200 257.000 559.300 V 562.200 Z" stroke="rgb(0,0,255)" stroke-width="0.20" />
  <path d="M 257.000 550.200 V 553.100 C 257.000 553.200 257.100 553.100 257.000 553.100 H 254.200 C 254.100 553.100 254.200 553.200 254.200 553.100 V 547.300 C 254.200 547.200 254.100 547.300 254.200 547.300 H 257.000 C 257.100 547.300 257.000 547.200 257.000 547.300 V 550.200 Z" stroke="rgb(0,0,255)" stroke-width="0.20" />
  <path d="M 257.000 538.200 V 541.100 C 257.000 541.200 257.100 541.100 257.000 541.100 H 254.200 C 254.100 541.100 254.200 541.200 254.200 541.100 V 535.300 C 254.200 535.200 254.100 535.300 254.200 535.300 H 257.000 C 257.100 535.300 257.000 535.200 257.000 535.300 V 538.200 Z" stroke="rgb(0,0,255)" stroke-width="0.20" />
  <path d="M 257.000 526.200 V 529.100 C 257.000 529.200 257.100 529.100 257.000 529.100 H 254.200 C 254.100 529.100 254.200 529.200 254.200 529.100 V 523.300 C 254.200 523.200 254.100 523.300 254.200 523.300 H 257.000 C 257.100 523.300 257.000 523.200 257.000 523.300 V 526.200 Z" stroke="rgb(0,0,255)" stroke-width="0.20" />
  <path d="M 13.200 526.200 V 523.300 C 13.200 523.200 13.100 523.300 13.200 523.300 H 16.000 C 16.100 523.300 16.000 523.200 16.000 523.300 V 529.100 C 16.000 529.200 16.100 529.100 16.000 529.100 H 13.200 C 13.100 529.100 13.200 529.200 13.200 529.100 V 526.200 Z" stroke="rgb(0,0,255)" stroke-width="0.20" />
  <path d="M 13.200 538.200 V 535.300 C 13.200 535.200 13.100 535.300 13.200 535.300 H 16.000 C 16.100 535.300 16.000 535.200 16.000 535.300 V 541.100 C 16.000 541.200 16.100 541.100 16.000 541.100 H 13.200 C 13.100 541.100 13.200 541.200 13.200 541.100 V 538.200 Z" stroke="rgb(0,0,255)" stroke-width="0.20" />
  <path d="M 13.200 550.200 V 547.300 C 13.200 547.200 13.100 547.300 13.200 547.300 H 16.000 C 16.100 547.300 16.000 547.200 16.000 547.300 V 553.100 C 16.000 553.200 16.100 553.100 16.000 553.100 H 13.200 C 13.100 553.100 13.200 553.200 13.200 553.100 V 550.200 Z" stroke="rgb(0,0,255)" stroke-width="0.20" />
  <path d="M 13.200 562.200 V 559.300 C 13.200 559.200 13.100 559.300 13.200 559.300 H 16.000 C 16.100 559.300 16.000 559.200 16.000 559.300 V 565.100 C 16.000 565.200 16.100 565.100 16.000 565.100 H 13.200 C 13.100 565.100 13.200 565.200 13.200 565.100 V 562.200 Z" stroke="rgb(0,0,255)" stroke-width="0.20" />
  <path d="M 13.200 574.200 V 571.300 C 13.200 571.200 13.100 571.300 13.200 571.300 H 16.000 C 16.100 571.300 16.000 571.200 16.000 571.300 V 577.100 C 16.000 577.200 16.100 577.100 16.000 577.100 H 13.200 C 13.100 577.100 13.200 577.200 13.200 577.100 V 574.200 Z" stroke="rgb(0,0,255)" stroke-width="0.20" />
  <path d="M 13.200 586.200 V 583.300 C 13.200 583.200 13.100 583.300 13.200 583.300 H 16.000 C 16.100 583.300 16.000 583.200 16.000 583.300 V 589.100 C 16.000 589.200 16.100 589.100 16.000 589.100 H 13.200 C 13.100 589.100 13.200 589.200 13.200 589.100 V 586.200 Z" stroke="rgb(0,0,255)" stroke-width="0.20" />
  <path d="M 13.200 598.200 V 595.300 C 13.200 595.200 13.100 595.300 13.200 595.300 H 16.000 C 16.100 595.300 16.000 595.200 16.000 595.300 V 601.100 C 16.000 601.200 16.100 601.100 16.000 601.100 H 13.200 C 13.100 601.100 13.200 601.200 13.200 601.100 V 598.200 Z" stroke="rgb(0,0,255)" stroke-width="0.20" />
</g>
<g id="p-2" style="fill:none;stroke-linecap:round;stroke-linejoin:round;">
  <path d="M 27.100 504.500 H 24.200 C 24.100 504.500 24.200 504.600 24.200 504.500 V 501.700 C 24.200 501.600 24.100 501.700 24.200 501.700 H 30.000 C 30.100 501.700 30.000 501.600 30.000 501.700 V 504.500 C 30.000 504.600 30.100 504.500 30.000 504.500 H 27.100 Z" stroke="rgb(0,0,255)" stroke-width="0.20" />
  <path d="M 39.100 504.500 H 36.200 C 36.100 504.500 36.200 504.600 36.200 504.500 V 501.700 C 36.200 501.600 36.100 501.700 36.200 501.700 H 42.000 C 42.100 501.700 42.000 501.600 42.000 501.700 V 504.500 C 42.000 504.600 42.100 504.500 42.000 504.500 H 39.100 Z" stroke="rgb(0,0,255)" stroke-width="0.20" />
  <path d="M 51.100 504.500 H 48.200 C 48.100 504.500 48.200 504.600 48.200 504.500 V 501.700 C 48.200 501.600 48.100 501.700 48.200 501.700 H 54.000 C 54.100 501.700 54.000 501.600 54.000 501.700 V 504.500 C 54.000 504.600 54.100 504.500 54.000 504.500 H 51.100 Z" stroke="rgb(0,0,255)" stroke-width="0.20" />
  <path d="M 63.100 504.500 H 60.200 C 60.100 504.500 60.200 504.600 60.200 504.500 V 501.700 C 60.200 501.600 60.100 501.700 60.200 501.700 H 66.000 C 66.100 501.700 66.000 501.600 66.000 501.700 V 504.500 C 66.000 504.600 66.100 504.500 66.000 504.500 H 63.100 Z" stroke="rgb(0,0,255)" stroke-width="0.20" />
  <path d="M 75.100 504.500 H 72.200 C 72.100 504.500 72.200 504.600 72.200 504.500 V 501.700 C 72.200 501.600 72.100 501.700 72.200 501.700 H 78.000 C 78.100 501.700 78.000 501.600 78.000 501.700 V 504.500 C 78.000 504.600 78.100 504.500 78.000 504.500 H 75.100 Z" stroke="rgb(0,0,255)" stroke-width="0.20" />
  <path d="M 87.100 504.500 H 84.200 C 84.100 504.500 84.200 504.600 84.200 504.500 V 501.700 C 84.200 501.600 84.100 501.700 84.200 501.700 H 90.000 C 90.100 501.700 90.000 501.600 90.000 501.700 V 504.500 C 90.000 504.600 90.100 504.500 90.000 504.500 H 87.100 Z" stroke="rgb(0,0,255)" stroke-width="0.20" />
  <path d="M 99.100 504.500 H 96.200 C 96.100 504.500 96.200 504.600 96.200 504.500 V 501.700 C 96.200 501.600 96.100 501.700 96.200 501.700 H 102.000 C 102.100 501.700 102.000 501.600 102.000 501.700 V 504.500 C 102.000 504.600 102.100 504.500 102.000 504.500 H 99.100 Z" stroke="rgb(0,0,255)" stroke-width="0.20" />
  <path d="M 111.100 504.500 H 108.200 C 108.100 504.500 108.200 504.600 108.200 504.500 V 501.700 C 108.200 501.600 108.100 501.700 108.200 501.700 H 114.000 C 114.100 501.700 114.000 501.600 114.000 501.700 V 504.500 C 114.000 504.600 114.100 504.500 114.000 504.500 H 111.100 Z" stroke="rgb(0,0,255)" stroke-width="0.20" />
  <path d="M 123.100 504.500 H 120.200 C 120.100 504.500 120.200 504.600 120.200 504.500 V 501.700 C 120.200 501.600 120.100 501.700 120.200 501.700 H 126.000 C 126.100 501.700 126.000 501.600 126.000 501.700 V 504.500 C 126.000 504.600 126.100 504.500 126.000 504.500 H 123.100 Z" stroke="rgb(0,0,255)" stroke-width="0.20" />
  <path d="M 135.100 504.500 H 132.200 C 132.100 504.500 132.200 504.600 132.200 504.500 V 501.700 C 132.200 501.600 132.100 501.700 132.200 501.700 H 138.000 C 138.100 501.700 138.000 501.600 138.000 501.700 V 504.500 C 138.000 504.600 138.100 504.500 138.000 504.500 H 135.100 Z" stroke="rgb(0,0,255)" stroke-width="0.20" />
  <path d="M 147.100 504.500 H 144.200 C 144.100 504.500 144.200 504.600 144.200 504.500 V 501.700 C 144.200 501.600 144.100 501.700 144.200 501.700 H 150.000 C 150.100 501.700 150.000 501.600 150.000 501.700 V 504.500 C 150.000 504.600 150.100 504.500 150.000 504.500 H 147.100 Z" stroke="rgb(0,0,255)" stroke-width="0.20" />
  <path d="M 159.100 504.500 H 156.200 C 156.100 504.500 156.200 504.600 156.200 504.500 V 501.700 C 156.200 501.600 156.100 501.700 156.200 501.700 H 162.000 C 162.100 501.700 162.000 501.600 162.000 501.700 V 504.500 C 162.000 504.600 162.100 504.500 162.000 504.500 H 159.100 Z" stroke="rgb(0,0,255)" stroke-width="0.20" />
  <path d="M 171.100 504.500 H 168.200 C 168.100 504.500 168.200 504.600 168.200 504.500 V 501.700 C 168.200 501.600 168.100 501.700 168.200 501.700 H 174.000 C 174.100 501.700 174.000 501.600 174.000 501.700 V 504.500 C 174.000 504.600 174.100 504.500 174.000 504.500 H 171.100 Z" stroke="rgb(0,0,255)" stroke-width="0.20" />
  <path d="M 183.100 504.500 H 180.200 C 180.100 504.500 180.200 504.600 180.200 504.500 V 501.700 C 180.200 501.600 180.100 501.700 180.200 501.700 H 186.000 C 186.100 501.700 186.000 501.600 186.000 501.700 V 504.500 C 186.000 504.600 186.100 504.500 186.000 504.500 H 183.100 Z" stroke="rgb(0,0,255)" stroke-width="0.20" />
  <path d="M 195.100 504.500 H 192.200 C 192.100 504.500 192.200 504.600 192.200 504.500 V 501.700 C 192.200 501.600 192.100 501.700 192.200 501.700 H 198.000 C 198.100 501.700 198.000 501.600 198.000 501.700 V 504.500 C 198.000 504.600 198.100 504.500 198.000 504.500 H 195.100 Z" stroke="rgb(0,0,255)" stroke-width="0.20" />
  <path d="M 207.100 504.500 H 204.200 C 204.100 504.500 204.200 504.600 204.200 504.500 V 501.700 C 204.200 501.600 204.100 501.700 204.200 501.700 H 210.000 C 210.100 501.700 210.000 501.600 210.000 501.700 V 504.500 C 210.000 504.600 210.100 504.500 210.000 504.500 H 207.100 Z" stroke="rgb(0,0,255)" stroke-width="0.20" />
  <path d="M 219.100 504.500 H 216.200 C 216.100 504.500 216.200 504.600 216.200 504.500 V 501.700 C 216.200 501.600 216.100 501.700 216.200 501.700 H 222.000 C 222.100 501.700 222.000 501.600 222.000 501.700 V 504.500 C 222.000 504.600 222.100 504.500 222.000 504.500 H 219.100 Z" stroke="rgb(0,0,255)" stroke-width="0.20" />
  <path d="M 231.100 504.500 H 228.200 C 228.100 504.500 228.200 504.600 228.200 504.500 V 501.700 C 228.200 501.600 228.100 501.700 228.200 501.700 H 234.000 C 234.100 501.700 234.000 501.600 234.000 501.700 V 504.500 C 234.000 504.600 234.100 504.500 234.000 504.500 H 231.100 Z" stroke="rgb(0,0,255)" stroke-width="0.20" />
  <path d="M 243.100 504.500 H 240.200 C 240.100 504.500 240.200 504.600 240.200 504.500 V 501.700 C 240.200 501.600 240.100 501.700 240.200 501.700 H 246.000 C 246.100 501.700 246.000 501.600 246.000 501.700 V 504.500 C 246.000 504.600 246.100 504.500 246.000 504.500 H 243.100 Z" stroke="rgb(0,0,255)" stroke-width="0.20" />
  <path d="M 16.100 513.600 H 28.100 C 29.171 513.600 30.223 513.318 31.150 512.783 C 32.077 512.247 32.847 511.477 33.383 510.550 C 33.901 509.653 34.645 508.908 35.542 508.390 C 36.439 507.873 37.457 507.600 38.492 507.600 H 231.708 C 232.743 507.600 233.761 507.873 234.658 508.390 C 235.555 508.908 236.299 509.653 236.817 510.550 C 237.353 511.477 238.123 512.247 239.050 512.783 C 239.977 513.318 241.029 513.600 242.100 513.600 H 254.100 H 260.100 C 260.155 513.600 260.200 513.555 260.200 513.500 V 419.500 V 413.500 C 260.200 413.445 260.155 413.400 260.100 413.400 H 254.100 H 16.100 H 10.100 C 10.045 413.400 10.000 413.445 10.000 413.500 V 419.500 V 513.500 C 10.000 513.555 10.045 513.600 10.100 513.600 H 16.100 Z" stroke="rgb(0,0,0)" stroke-width="0.20" />
  <path d="M 257.000 502.500 V 505.400 C 257.000 505.500 257.100 505.400 257.000 505.400 H 254.200 C 254.100 505.400 254.200 505.500 254.200 505.400 V 499.600 C 254.200 499.500 254.100 499.600 254.200 499.600 H 257.000 C 257.100 499.600 257.000 499.500 257.000 499.600 V 502.500 Z" stroke="rgb(0,0,255)" stroke-width="0.20" />
  <path d="M 257.000 490.500 V 493.400 C 257.000 493.500 257.100 493.400 257.000 493.400 H 254.200 C 254.100 493.400 254.200 493.500 254.200 493.400 V 487.600 C 254.200 487.500 254.100 487.600 254.200 487.600 H 257.000 C 257.100 487.600 257.000 487.500 257.000 487.600 V 490.500 Z" stroke="rgb(0,0,255)" stroke-width="0.20" />
  <path d="M 257.000 478.500 V 481.400 C 257.000 481.500 257.100 481.400 257.000 481.400 H 254.200 C 254.100 481.400 254.200 481.500 254.200 481.400 V 475.600 C 254.200 475.500 254.100 475.600 254.200 475.600 H 257.000 C 257.100 475.600 257.000 475.500 257.000 475.600 V 478.500 Z" stroke="rgb(0,0,255)" stroke-width="0.20" />
  <path d="M 257.000 466.500 V 469.400 C 257.000 469.500 257.100 469.400 257.000 469.400 H 254.200 C 254.100 469.400 254.200 469.500 254.200 469.400 V 463.600 C 254.200 463.500 254.100 463.600 254.200 463.600 H 257.000 C 257.100 463.600 257.000 463.500 257.000 463.600 V 466.500 Z" stroke="rgb(0,0,255)" stroke-width="0.20" />
  <path d="M 257.000 454.500 V 457.400 C 257.000 457.500 257.100 457.400 257.000 457.400 H 254.200 C 254.100 457.400 254.200 457.500 254.200 457.400 V 451.600 C 254.200 451.500 254.100 451.600 254.200 451.600 H 257.000 C 257.100 451.600 257.000 451.500 257.000 451.600 V 454.500 Z" stroke="rgb(0,0,255)" stroke-width="0.20" />
  <path d="M 257.000 442.500 V 445.400 C 257.000 445.500 257.100 445.400 257.000 445.400 H 254.200 C 254.100 445.400 254.200 445.500 254.200 445.400 V 439.600 C 254.200 439.500 254.100 439.600 254.200 439.600 H 257.000 C 257.100 439.600 257.000 439.500 257.000 439.600 V 442.500 Z" stroke="rgb(0,0,255)" stroke-width="0.20" />
  <path d="M 257.000 430.500 V 433.400 C 257.000 433.500 257.100 433.400 257.000 433.400 H 254.200 C 254.100 433.400 254.200 433.500 254.200 433.400 V 427.600 C 254.200 427.500 254.100 427.600 254.200 427.600 H 257.000 C 257.100 427.600 257.000 427.500 257.000 427.600 V 430.500 Z" stroke="rgb(0,0,255)" stroke-width="0.20" />
  <path d="M 240.100 416.525 H 244.575 C 244.675 416.525 244.575 416.425 244.575 416.525 V 419.475 C 244.575 419.575 244.675 419.475 244.575 419.475 H 235.625 C 235.525 419.475 235.625 419.575 235.625 419.475 V 416.525 C 235.625 416.425 235.525 416.525 235.625 416.525 H 240.100 Z" stroke="rgb(0,0,255)" stroke-width="0.20" />
  <path d="M 225.100 416.525 H 229.575 C 229.675 416.525 229.575 416.425 229.575 416.525 V 419.475 C 229.575 419.575 229.675 419.475 229.575 419.475 H 220.625 C 220.525 419.475 220.625 419.575 220.625 419.475 V 416.525 C 220.625 416.425 220.525 416.525 220.625 416.525 H 225.100 Z" stroke="rgb(0,0,255)" stroke-width="0.20" />
  <path d="M 210.100 416.525 H 214.575 C 214.675 416.525 214.575 416.425 214.575 416.525 V 419.475 C 214.575 419.575 214.675 419.475 214.575 419.475 H 205.625 C 205.525 419.475 205.625 419.575 205.625 419.475 V 416.525 C 205.625 416.425 205.525 416.525 205.625 416.525 H 210.100 Z" stroke="rgb(0,0,255)" stroke-width="0.20" />
  <path d="M 195.100 416.525 H 199.575 C 199.675 416.525 199.575 416.425 199.575 416.525 V 419.475 C 199.575 419.575 199.675 419.475 199.575 419.475 H 190.625 C 190.525 419.475 190.625 419.575 190.625 419.475 V 416.525 C 190.625 416.425 190.525 416.525 190.625 416.525 H 195.100 Z" stroke="rgb(0,0,255)" stroke-width="0.20" />
  <path d="M 180.100 416.525 H 184.575 C 184.675 416.525 184.575 416.425 184.575 416.525 V 419.475 C 184.575 419.575 184.675 419.475 184.575 419.475 H 175.625 C 175.525 419.475 175.625 419.575 175.625 419.475 V 416.525 C 175.625 416.425 175.525 416.525 175.625 416.525 H 180.100 Z" stroke="rgb(0,0,255)" stroke-width="0.20" />
  <path d="M 165.100 416.525 H 169.575 C 169.675 416.525 169.575 416.425 169.575 416.525 V 419.475 C 169.575 419.575 169.675 419.475 169.575 419.475 H 160.625 C 160.525 419.475 160.625 419.575 160.625 419.475 V 416.525 C 160.625 416.425 160.525 416.525 160.625 416.525 H 165.100 Z" stroke="rgb(0,0,255)" stroke-width="0.20" />
  <path d="M 150.100 416.525 H 154.575 C 154.675 416.525 154.575 416.425 154.575 416.525 V 419.475 C 154.575 419.575 154.675 419.475 154.575 419.475 H 145.625 C 145.525 419.475 145.625 419.575 145.625 419.475 V 416.525 C 145.625 416.425 145.525 416.525 145.625 416.525 H 150.100 Z" stroke="rgb(0,0,255)" stroke-width="0.20" />
  <path d="M 135.100 416.525 H 139.575 C 139.675 416.525 139.575 416.425 139.575 416.525 V 419.475 C 139.575 419.575 139.675 419.475 139.575 419.475 H 130.625 C 130.525 419.475 130.625 419.575 130.625 419.475 V 416.525 C 130.625 416.425 130.525 416.525 130.625 416.525 H 135.100 Z" stroke="rgb(0,0,255)" stroke-width="0.20" />
  <path d="M 120.100 416.525 H 124.575 C 124.675 416.525 124.575 416.425 124.575 416.525 V 419.475 C 124.575 419.575 124.675 419.475 124.575 419.475 H 115.625 C 115.525 419.475 115.625 419.575 115.625 419.475 V 416.525 C 115.625 416.425 115.525 416.525 115.625 416.525 H 120.100 Z" stroke="rgb(0,0,255)" stroke-width="0.20" />
  <path d="M 105.100 416.525 H 109.575 C 109.675 416.525 109.575 416.425 109.575 416.525 V 419.475 C 109.575 419.575 109.675 419.475 109.575 419.475 H 100.625 C 100.525 419.475 100.625 419.575 100.625 419.475 V 416.525 C 100.625 416.425 100.525 416.525 100.625 416.525 H 105.100 Z" stroke="rgb(0,0,255)" stroke-width="0.20" />
  <path d="M 90.100 416.525 H 94.575 C 94.675 416.525 94.575 416.425 94.575 416.525 V 419.475 C 94.575 419.575 94.675 419.475 94.575 419.475 H 85.625 C 85.525 419.475 85.625 419.575 85.625 419.475 V 416.525 C 85.625 416.425 85.525 416.525 85.625 416.525 H 90.100 Z" stroke="rgb(0,0,255)" stroke-width="0.20" />
  <path d="M 75.100 416.525 H 79.575 C 79.675 416.525 79.575 416.425 79.575 416.525 V 419.475 C 79.575 419.575 79.675 419.475 79.575 419.475 H 70.625 C 70.525 419.475 70.625 419.575 70.625 419.475 V 416.525 C 70.625 416.425 70.525 416.525 70.625 416.525 H 75.100 Z" stroke="rgb(0,0,255)" stroke-width="0.20" />
  <path d="M 60.100 416.525 H 64.575 C 64.675 416.525 64.575 416.425 64.575 416.525 V 419.475 C 64.575 419.575 64.675 419.475 64.575 419.475 H 55.625 C 55.525 419.475 55.625 419.575 55.625 419.475 V 416.525 C 55.625 416.425 55.525 416.525 55.625 416.525 H 60.100 Z" stroke="rgb(0,0,255)" stroke-width="0.20" />
  <path d="M 45.100 416.525 H 49.575 C 49.675 416.525 49.575 416.425 49.575 416.525 V 419.475 C 49.575 419.575 49.675 419.475 49.575 419.475 H 40.625 C 40.525 419.475 40.625 419.575 40.625 419.475 V 416.525 C 40.625 416.425 40.525 416.525 40.625 416.525 H 45.100 Z" stroke="rgb(0,0,255)" stroke-width="0.20" />
  <path d="M 30.100 416.525 H 34.575 C 34.675 416.525 34.575 416.425 34.575 416.525 V 419.475 C 34.575 419.575 34.675 419.475 34.575 419.475 H 25.625 C 25.525 419.475 25.625 419.575 25.625 419.475 V 416.525 C 25.625 416.425 25.525 416.525 25.625 416.525 H 30.100 Z" stroke="rgb(0,0,255)" stroke-width="0.20" />
  <path d="M 13.200 430.500 V 427.600 C 13.200 427.500 13.100 427.600 13.200 427.600 H 16.000 C 16.100 427.600 16.000 427.500 16.000 427.600 V 433.400 C 16.000 433.500 16.100 433.400 16.000 433.400 H 13.200 C 13.100 433.400 13.200 433.500 13.200 433.400 V 430.500 Z" stroke="rgb(0,0,255)" stroke-width="0.20" />
  <path d="M 13.200 442.500 V 439.600 C 13.200 439.500 13.100 439.600 13.200 439.600 H 16.000 C 16.100 439.600 16.000 439.500 16.000 439.600 V 445.400 C 16.000 445.500 16.100 445.400 16.000 445.400 H 13.200 C 13.100 445.400 13.200 445.500 13.200 445.400 V 442.500 Z" stroke="rgb(0,0,255)" stroke-width="0.20" />
  <path d="M 13.200 454.500 V 451.600 C 13.200 451.500 13.100 451.600 13.200 451.600 H 16.000 C 16.100 451.600 16.000 451.500 16.000 451.600 V 457.400 C 16.000 457.500 16.100 457.400 16.000 457.400 H 13.200 C 13.100 457.400 13.200 457.500 13.200 457.400 V 454.500 Z" stroke="rgb(0,0,255)" stroke-width="0.20" />
  <path d="M 13.200 466.500 V 463.600 C 13.200 463.500 13.100 463.600 13.200 463.600 H 16.000 C 16.100 463.600 16.000 463.500 16.000 463.600 V 469.400 C 16.000 469.500 16.100 469.400 16.000 469.400 H 13.200 C 13.100 469.400 13.200 469.500 13.200 469.400 V 466.500 Z" stroke="rgb(0,0,255)" stroke-width="0.20" />
  <path d="M 13.200 478.500 V 475.600 C 13.200 475.500 13.100 475.600 13.200 475.600 H 16.000 C 16.100 475.600 16.000 475.500 16.000 475.600 V 481.400 C 16.000 481.500 16.100 481.400 16.000 481.400 H 13.200 C 13.100 481.400 13.200 481.500 13.200 481.400 V 478.500 Z" stroke="rgb(0,0,255)" stroke-width="0.20" />
  <path d="M 13.200 490.500 V 487.600 C 13.200 487.500 13.100 487.600 13.200 487.600 H 16.000 C 16.100 487.600 16.000 487.500 16.000 487.600 V 493.400 C 16.000 493.500 16.100 493.400 16.000 493.400 H 13.200 C 13.100 493.400 13.200 493.500 13.200 493.400 V 490.500 Z" stroke="rgb(0,0,255)" stroke-width="0.20" />
  <path d="M 13.200 502.500 V 499.600 C 13.200 499.500 13.100 499.600 13.200 499.600 H 16.000 C 16.100 499.600 16.000 499.500 16.000 499.600 V 505.400 C 16.000 505.500 16.100 505.400 16.000 505.400 H 13.200 C 13.100 505.400 13.200 505.500 13.200 505.400 V 502.500 Z" stroke="rgb(0,0,255)" stroke-width="0.20" />
</g>
<g id="p-3" style="fill:none;stroke-linecap:round;stroke-linejoin:round;">
  <path d="M 13.100 408.900 H 21.000 C 21.100 408.900 21.000 408.800 21.000 408.900 V 411.800 C 21.000 411.855 21.045 411.900 21.100 411.900 H 27.100 C 27.155 411.900 27.200 411.855 27.200 411.800 V 408.900 C 27.200 408.800 27.100 408.900 27.200 408.900 H 33.000 C 33.100 408.900 33.000 408.800 33.000 408.900 V 411.800 C 33.000 411.855 33.045 411.900 33.100 411.900 H 39.100 C 39.155 411.900 39.200 411.855 39.200 411.800 V 408.900 C 39.200 408.800 39.100 408.900 39.200 408.900 H 45.000 C 45.100 408.900 45.000 408.800 45.000 408.900 V 411.800 C 45.000 411.855 45.045 411.900 45.100 411.900 H 51.100 C 51.155 411.900 51.200 411.855 51.200 411.800 V 408.900 C 51.200 408.800 51.100 408.900 51.200 408.900 H 57.000 C 57.100 408.900 57.000 408.800 57.000 408.900 V 411.800 C 57.000 411.855 57.045 411.900 57.100 411.900 H 63.100 C 63.155 411.900 63.200 411.855 63.200 411.800 V 408.900 C 63.200 408.800 63.100 408.900 63.200 408.900 H 69.000 C 69.100 408.900 69.000 408.800 69.000 408.900 V 411.800 C 69.000 411.855 69.045 411.900 69.100 411.900 H 75.100 C 75.155 411.900 75.200 411.855 75.200 411.800 V 408.900 C 75.200 408.800 75.100 408.900 75.200 408.900 H 81.000 C 81.100 408.900 81.000 408.800 81.000 408.900 V 411.800 C 81.000 411.855 81.045 411.900 81.100 411.900 H 87.100 C 87.155 411.900 87.200 411.855 87.200 411.800 V 408.900 C 87.200 408.800 87.100 408.900 87.200 408.900 H 93.000 C 93.100 408.900 93.000 408.800 93.000 408.900 V 411.800 C 93.000 411.855 93.045 411.900 93.100 411.900 H 99.100 C 99.155 411.900 99.200 411.855 99.200 411.800 V 408.900 C 99.200 408.800 99.100 408.900 99.200 408.900 H 105.000 C 105.100 408.900 105.000 408.800 105.000 408.900 V 411.800 C 105.000 411.855 105.045 411.900 105.100 411.900 H 111.100 C 111.155 411.900 111.200 411.855 111.200 411.800 V 408.900 C 111.200 408.800 111.100 408.900 111.200 408.900 H 117.000 C 117.100 408.900 117.000 408.800 117.000 408.900 V 411.800 C 117.000 411.855 117.045 411.900 117.100 411.900 H 123.100 C 123.155 411.900 123.200 411.855 123.200 411.800 V 408.900 C 123.200 408.800 123.100 408.900 123.200 408.900 H 129.000 C 129.100 408.900 129.000 408.800 129.000 408.900 V 411.800 C 129.000 411.855 129.045 411.900 129.100 411.900 H 135.100 C 135.155 411.900 135.200 411.855 135.200 411.800 V 408.900 C 135.200 408.800 135.100 408.900 135.200 408.900 H 141.000 C 141.100 408.900 141.000 408.800 141.000 408.900 V 411.800 C 141.000 411.855 141.045 411.900 141.100 411.900 H 147.100 C 147.155 411.900 147.200 411.855 147.200 411.800 V 408.900 C 147.200 408.800 147.100 408.900 147.200 408.900 H 153.000 C 153.100 408.900 153.000 408.800 153.000 408.900 V 411.800 C 153.000 411.855 153.045 411.900 153.100 411.900 H 159.100 C 159.155 411.900 159.200 411.855 159.200 411.800 V 408.900 C 159.200 408.800 159.100 408.900 159.200 408.900 H 165.000 C 165.100 408.900 165.000 408.800 165.000 408.900 V 411.800 C 165.000 411.855 165.045 411.900 165.100 411.900 H 171.100 C 171.155 411.900 171.200 411.855 171.200 411.800 V 408.900 C 171.200 408.800 171.100 408.900 171.200 408.900 H 177.000 C 177.100 408.900 177.000 408.800 177.000 408.900 V 411.800 C 177.000 411.855 177.045 411.900 177.100 411.900 H 183.100 C 183.155 411.900 183.200 411.855 183.200 411.800 V 408.900 C 183.200 408.800 183.100 408.900 183.200 408.900 H 189.000 C 189.100 408.900 189.000 408.800 189.000 408.900 V 411.800 C 189.000 411.855 189.045 411.900 189.100 411.900 H 195.100 C 195.155 411.900 195.200 411.855 195.200 411.800 V 408.900 C 195.200 408.800 195.100 408.900 195.200 408.900 H 201.000 C 201.100 408.900 201.000 408.800 201.000 408.900 V 411.800 C 201.000 411.855 201.045 411.900 201.100 411.900 H 207.100 C 207.155 411.900 207.200 411.855 207.200 411.800 V 408.900 C 207.200 408.800 207.100 408.900 207.200 408.900 H 213.000 C 213.100 408.900 213.000 408.800 213.000 408.900 V 411.800 C 213.000 411.855 213.045 411.900 213.100 411.900 H 219.100 C 219.155 411.900 219.200 411.855 219.200 411.800 V 408.900 C 219.200 408.800 219.100 408.900 219.200 408.900 H 225.000 C 225.100 408.900 225.000 408.800 225.000 408.900 V 411.800 C 225.000 411.855 225.045 411.900 225.100 411.900 H 231.100 C 231.155 411.900 231.200 411.855 231.200 411.800 V 408.900 C 231.200 408.800 231.100 408.900 231.200 408.900 H 237.000 C 237.100 408.900 237.000 408.800 237.000 408.900 V 411.800 C 237.000 411.855 237.045 411.900 237.100 411.900 H 243.100 C 243.155 411.900 243.200 411.855 243.200 411.800 V 408.900 C 243.200 408.800 243.100 408.900 243.200 408.900 H 251.100 C 251.155 408.900 251.200 408.855 251.200 408.800 V 398.900 C 251.200 398.800 251.100 398.900 251.200 398.900 H 254.100 C 254.155 398.900 254.200 398.855 254.200 398.800 V 392.800 C 254.200 392.745 254.155 392.700 254.100 392.700 H 251.200 C 251.100 392.700 251.200 392.800 251.200 392.700 V 386.900 C 251.200 386.800 251.100 386.900 251.200 386.900 H 254.100 C 254.155 386.900 254.200 386.855 254.200 386.800 V 380.800 C 254.200 380.745 254.155 380.700 254.100 380.700 H 251.200 C 251.100 380.700 251.200 380.800 251.200 380.700 V 374.900 C 251.200 374.800 251.100 374.900 251.200 374.900 H 254.100 C 254.155 374.900 254.200 374.855 254.200 374.800 V 368.800 C 254.200 368.745 254.155 368.700 254.100 368.700 H 251.200 C 251.100 368.700 251.200 368.800 251.200 368.700 V 362.900 C 251.200 362.800 251.100 362.900 251.200 362.900 H 254.100 C 254.155 362.900 254.200 362.855 254.200 362.800 V 356.800 C 254.200 356.745 254.155 356.700 254.100 356.700 H 251.200 C 251.100 356.700 251.200 356.800 251.200 356.700 V 350.900 C 251.200 350.800 251.100 350.900 251.200 350.900 H 254.100 C 254.155 350.900 254.200 350.855 254.200 350.800 V 344.800 C 254.200 344.745 254.155 344.700 254.100 344.700 H 251.200 C 251.100 344.700 251.200 344.800 251.200 344.700 V 338.900 C 251.200 338.800 251.100 338.900 251.200 338.900 H 254.100 C 254.155 338.900 254.200 338.855 254.200 338.800 V 332.800 C 254.200 332.745 254.155 332.700 254.100 332.700 H 251.200 C 251.100 332.700 251.200 332.800 251.200 332.700 V 326.900 C 251.200 326.800 251.100 326.900 251.200 326.900 H 254.100 C 254.155 326.900 254.200 326.855 254.200 326.800 V 320.800 C 254.200 320.745 254.155 320.700 254.100 320.700 H 251.200 C 251.100 320.700 251.200 320.800 251.200 320.700 V 314.900 C 251.200 314.800 251.100 314.900 251.200 314.900 H 254.100 C 254.155 314.900 254.200 314.855 254.200 314.800 V 308.800 C 254.200 308.745 254.155 308.700 254.100 308.700 H 251.200 C 251.100 308.700 251.200 308.800 251.200 308.700 V 302.900 C 251.200 302.800 251.100 302.900 251.200 302.900 H 254.100 C 254.155 302.900 254.200 302.855 254.200 302.800 V 296.800 C 254.200 296.745 254.155 296.700 254.100 296.700 H 251.200 C 251.100 296.700 251.200 296.800 251.200 296.700 V 290.900 C 251.200 290.800 251.100 290.900 251.200 290.900 H 254.100 C 254.155 290.900 254.200 290.855 254.200 290.800 V 284.800 C 254.200 284.745 254.155 284.700 254.100 284.700 H 251.200 C 251.100 284.700 251.200 284.800 251.200 284.700 V 278.900 C 251.200 278.800 251.100 278.900 251.200 278.900 H 254.100 C 254.155 278.900 254.200 278.855 254.200 278.800 V 272.800 C 254.200 272.745 254.155 272.700 254.100 272.700 H 251.200 C 251.100 272.700 251.200 272.800 251.200 272.700 V 266.900 C 251.200 266.800 251.100 266.900 251.200 266.900 H 254.100 C 254.155 266.900 254.200 266.855 254.200 266.800 V 260.800 C 254.200 260.745 254.155 260.700 254.100 260.700 H 251.200 C 251.100 260.700 251.200 260.800 251.200 260.700 V 254.900 C 251.200 254.800 251.100 254.900 251.200 254.900 H 254.100 C 254.155 254.900 254.200 254.855 254.200 254.800 V 248.800 C 254.200 248.745 254.155 248.700 254.100 248.700 H 251.200 C 251.100 248.700 251.200 248.800 251.200 248.700 V 242.900 C 251.200 242.800 251.100 242.900 251.200 242.900 H 254.100 C 254.155 242.900 254.200 242.855 254.200 242.800 V 236.800 C 254.200 236.745 254.155 236.700 254.100 236.700 H 251.200 C 251.100 236.700 251.200 236.800 251.200 236.700 V 230.900 C 251.200 230.800 251.100 230.900 251.200 230.900 H 254.100 C 254.155 230.900 254.200 230.855 254.200 230.800 V 224.800 C 254.200 224.745 254.155 224.700 254.100 224.700 H 251.200 C 251.100 224.700 251.200 224.800 251.200 224.700 V 214.800 C 251.200 214.745 251.155 214.700 251.100 214.700 H 243.200 C 243.100 214.700 243.200 214.800 243.200 214.700 V 211.800 C 243.200 211.745 243.155 211.700 243.100 211.700 H 237.100 C 237.045 211.700 237.000 211.745 237.000 211.800 V 214.700 C 237.000 214.800 237.100 214.700 237.000 214.700 H 231.200 C 231.100 214.700 231.200 214.800 231.200 214.700 V 211.800 C 231.200 211.745 231.155 211.700 231.100 211.700 H 225.100 C 225.045 211.700 225.000 211.745 225.000 211.800 V 214.700 C 225.000 214.800 225.100 214.700 225.000 214.700 H 219.200 C 219.100 214.700 219.200 214.800 219.200 214.700 V 211.800 C 219.200 211.745 219.155 211.700 219.100 211.700 H 213.100 C 213.045 211.700 213.000 211.745 213.000 211.800 V 214.700 C 213.000 214.800 213.100 214.700 213.000 214.700 H 207.200 C 207.100 214.700 207.200 214.800 207.200 214.700 V 211.800 C 207.200 211.745 207.155 211.700 207.100 211.700 H 201.100 C 201.045 211.700 201.000 211.745 201.000 211.800 V 214.700 C 201.000 214.800 201.100 214.700 201.000 214.700 H 195.200 C 195.100 214.700 195.200 214.800 195.200 214.700 V 211.800 C 195.200 211.745 195.155 211.700 195.100 211.700 H 189.100 C 189.045 211.700 189.000 211.745 189.000 211.800 V 214.700 C 189.000 214.800 189.100 214.700 189.000 214.700 H 183.200 C 183.100 214.700 183.200 214.800 183.200 214.700 V 211.800 C 183.200 211.745 183.155 211.700 183.100 211.700 H 177.100 C 177.045 211.700 177.000 211.745 177.000 211.800 V 214.700 C 177.000 214.800 177.100 214.700 177.000 214.700 H 171.200 C 171.100 214.700 171.200 214.800 171.200 214.700 V 211.800 C 171.200 211.745 171.155 211.700 171.100 211.700 H 165.100 C 165.045 211.700 165.000 211.745 165.000 211.800 V 214.700 C 165.000 214.800 165.100 214.700 165.000 214.700 H 159.200 C 159.100 214.700 159.200 214.800 159.200 214.700 V 211.800 C 159.200 211.745 159.155 211.700 159.100 211.700 H 153.100 C 153.045 211.700 153.000 211.745 153.000 211.800 V 214.700 C 153.000 214.800 153.100 214.700 153.000 214.700 H 147.200 C 147.100 214.700 147.200 214.800 147.200 214.700 V 211.800 C 147.200 211.745 147.155 211.700 147.100 211.700 H 141.100 C 141.045 211.700 141.000 211.745 141.000 211.800 V 214.700 C 141.000 214.800 141.100 214.700 141.000 214.700 H 135.200 C 135.100 214.700 135.200 214.800 135.200 214.700 V 211.800 C 135.200 211.745 135.155 211.700 135.100 211.700 H 129.100 C 129.045 211.700 129.000 211.745 129.000 211.800 V 214.700 C 129.000 214.800 129.100 214.700 129.000 214.700 H 123.200 C 123.100 214.700 123.200 214.800 123.200 214.700 V 211.800 C 123.200 211.745 123.155 211.700 123.100 211.700 H 117.100 C 117.045 211.700 117.000 211.745 117.000 211.800 V 214.700 C 117.000 214.800 117.100 214.700 117.000 214.700 H 111.200 C 111.100 214.700 111.200 214.800 111.200 214.700 V 211.800 C 111.200 211.745 111.155 211.700 111.100 211.700 H 105.100 C 105.045 211.700 105.000 211.745 105.000 211.800 V 214.700 C 105.000 214.800 105.100 214.700 105.000 214.700 H 99.200 C 99.100 214.700 99.200 214.800 99.200 214.700 V 211.800 C 99.200 211.745 99.155 211.700 99.100 211.700 H 93.100 C 93.045 211.700 93.000 211.745 93.000 211.800 V 214.700 C 93.000 214.800 93.100 214.700 93.000 214.700 H 87.200 C 87.100 214.700 87.200 214.800 87.200 214.700 V 211.800 C 87.200 211.745 87.155 211.700 87.100 211.700 H 81.100 C 81.045 211.700 81.000 211.745 81.000 211.800 V 214.700 C 81.000 214.800 81.100 214.700 81.000 214.700 H 75.200 C 75.100 214.700 75.200 214.800 75.200 214.700 V 211.800 C 75.200 211.745 75.155 211.700 75.100 211.700 H 69.100 C 69.045 211.700 69.000 211.745 69.000 211.800 V 214.700 C 69.000 214.800 69.100 214.700 69.000 214.700 H 63.200 C 63.100 214.700 63.200 214.800 63.200 214.700 V 211.800 C 63.200 211.745 63.155 211.700 63.100 211.700 H 57.100 C 57.045 211.700 57.000 211.745 57.000 211.800 V 214.700 C 57.000 214.800 57.100 214.700 57.000 214.700 H 51.200 C 51.100 214.700 51.200 214.800 51.200 214.700 V 211.800 C 51.200 211.745 51.155 211.700 51.100 211.700 H 45.100 C 45.045 211.700 45.000 211.745 45.000 211.800 V 214.700 C 45.000 214.800 45.100 214.700 45.000 214.700 H 39.200 C 39.100 214.700 39.200 214.800 39.200 214.700 V 211.800 C 39.200 211.745 39.155 211.700 39.100 211.700 H 33.100 C 33.045 211.700 33.000 211.745 33.000 211.800 V 214.700 C 33.000 214.800 33.100 214.700 33.000 214.700 H 27.200 C 27.100 214.700 27.200 214.800 27.200 214.700 V 211.800 C 27.200 211.745 27.155 211.700 27.100 211.700 H 21.100 C 21.045 211.700 21.000 211.745 21.000 211.800 V 214.700 C 21.000 214.800 21.100 214.700 21.000 214.700 H 13.100 C 13.045 214.700 13.000 214.745 13.000 214.800 V 224.700 C 13.000 224.800 13.100 224.700 13.000 224.700 H 10.100 C 10.045 224.700 10.000 224.745 10.000 224.800 V 230.800 C 10.000 230.855 10.045 230.900 10.100 230.900 H 13.000 C 13.100 230.900 13.000 230.800 13.000 230.900 V 236.700 C 13.000 236.800 13.100 236.700 13.000 236.700 H 10.100 C 10.045 236.700 10.000 236.745 10.000 236.800 V 242.800 C 10.000 242.855 10.045 242.900 10.100 242.900 H 13.000 C 13.100 242.900 13.000 242.800 13.000 242.900 V 248.700 C 13.000 248.800 13.100 248.700 13.000 248.700 H 10.100 C 10.045 248.700 10.000 248.745 10.000 248.800 V 254.800 C 10.000 254.855 10.045 254.900 10.100 254.900 H 13.000 C 13.100 254.900 13.000 254.800 13.000 254.900 V 260.700 C 13.000 260.800 13.100 260.700 13.000 260.700 H 10.100 C 10.045 260.700 10.000 260.745 10.000 260.800 V 266.800 C 10.000 266.855 10.045 266.900 10.100 266.900 H 13.000 C 13.100 266.900 13.000 266.800 13.000 266.900 V 272.700 C 13.000 272.800 13.100 272.700 13.000 272.700 H 10.100 C 10.045 272.700 10.000 272.745 10.000 272.800 V 278.800 C 10.000 278.855 10.045 278.900 10.100 278.900 H 13.000 C 13.100 278.900 13.000 278.800 13.000 278.900 V 284.700 C 13.000 284.800 13.100 284.700 13.000 284.700 H 10.100 C 10.045 284.700 10.000 284.745 10.000 284.800 V 290.800 C 10.000 290.855 10.045 290.900 10.100 290.900 H 13.000 C 13.100 290.900 13.000 290.800 13.000 290.900 V 296.700 C 13.000 296.800 13.100 296.700 13.000 296.700 H 10.100 C 10.045 296.700 10.000 296.745 10.000 296.800 V 302.800 C 10.000 302.855 10.045 302.900 10.100 302.900 H 13.000 C 13.100 302.900 13.000 302.800 13.000 302.900 V 308.700 C 13.000 308.800 13.100 308.700 13.000 308.700 H 10.100 C 10.045 308.700 10.000 308.745 10.000 308.800 V 314.800 C 10.000 314.855 10.045 314.900 10.100 314.900 H 13.000 C 13.100 314.900 13.000 314.800 13.000 314.900 V 320.700 C 13.000 320.800 13.100 320.700 13.000 320.700 H 10.100 C 10.045 320.700 10.000 320.745 10.000 320.800 V 326.800 C 10.000 326.855 10.045 326.900 10.100 326.900 H 13.000 C 13.100 326.900 13.000 326.800 13.000 326.900 V 332.700 C 13.000 332.800 13.100 332.700 13.000 332.700 H 10.100 C 10.045 332.700 10.000 332.745 10.000 332.800 V 338.800 C 10.000 338.855 10.045 338.900 10.100 338.900 H 13.000 C 13.100 338.900 13.000 338.800 13.000 338.900 V 344.700 C 13.000 344.800 13.100 344.700 13.000 344.700 H 10.100 C 10.045 344.700 10.000 344.745 10.000 344.800 V 350.800 C 10.000 350.855 10.045 350.900 10.100 350.900 H 13.000 C 13.100 350.900 13.000 350.800 13.000 350.900 V 356.700 C 13.000 356.800 13.100 356.700 13.000 356.700 H 10.100 C 10.045 356.700 10.000 356.745 10.000 356.800 V 362.800 C 10.000 362.855 10.045 362.900 10.100 362.900 H 13.000 C 13.100 362.900 13.000 362.800 13.000 362.900 V 368.700 C 13.000 368.800 13.100 368.700 13.000 368.700 H 10.100 C 10.045 368.700 10.000 368.745 10.000 368.800 V 374.800 C 10.000 374.855 10.045 374.900 10.100 374.900 H 13.000 C 13.100 374.900 13.000 374.800 13.000 374.900 V 380.700 C 13.000 380.800 13.100 380.700 13.000 380.700 H 10.100 C 10.045 380.700 10.000 380.745 10.000 380.800 V 386.800 C 10.000 386.855 10.045 386.900 10.100 386.900 H 13.000 C 13.100 386.900 13.000 386.800 13.000 386.900 V 392.700 C 13.000 392.800 13.100 392.700 13.000 392.700 H 10.100 C 10.045 392.700 10.000 392.745 10.000 392.800 V 398.800 C 10.000 398.855 10.045 398.900 10.100 398.900 H 13.000 C 13.100 398.900 13.000 398.800 13.000 398.900 V 408.800 C 13.000 408.855 13.045 408.900 13.100 408.900 Z" stroke="rgb(0,0,0)" stroke-width="0.20" />
</g>
<g id="p-4" style="fill:none;stroke-linecap:round;stroke-linejoin:round;">
  <path d="M 13.100 210.200 H 251.100 H 254.100 C 254.155 210.200 254.200 210.155 254.200 210.100 V 207.100 C 254.200 207.045 254.155 207.000 254.100 207.000 H 248.200 C 248.100 207.000 248.200 207.100 248.200 207.000 V 189.100 C 248.200 188.986 248.230 188.874 248.287 188.775 C 248.344 188.676 248.426 188.594 248.525 188.537 C 248.624 188.480 248.736 188.450 248.850 188.450 C 248.964 188.450 249.076 188.480 249.175 188.537 C 249.274 188.594 249.356 188.676 249.413 188.775 C 249.470 188.874 249.500 188.986 249.500 189.100 V 206.500 C 249.500 206.555 249.545 206.600 249.600 206.600 H 251.100 C 251.136 206.600 251.169 206.581 251.187 206.550 L 251.879 205.350 C 251.897 205.319 251.897 205.281 251.879 205.250 L 251.200 204.073 C 251.187 204.050 251.200 204.100 251.200 204.073 V 22.200 C 251.200 22.100 251.100 22.200 251.200 22.200 H 254.100 C 254.155 22.200 254.200 22.155 254.200 22.100 V 16.100 C 254.200 16.045 254.155 16.000 254.100 16.000 H 251.200 C 251.100 16.000 251.200 16.100 251.200 16.000 V 13.100 C 251.200 13.045 251.155 13.000 251.100 13.000 H 241.700 C 241.600 13.000 241.700 13.100 241.700 13.000 V 10.100 C 241.700 10.045 241.655 10.000 241.600 10.000 H 232.600 C 232.545 10.000 232.500 10.045 232.500 10.100 V 13.000 C 232.500 13.100 232.600 13.000 232.500 13.000 H 226.700 C 226.600 13.000 226.700 13.100 226.700 13.000 V 10.100 C 226.700 10.045 226.655 10.000 226.600 10.000 H 217.600 C 217.545 10.000 217.500 10.045 217.500 10.100 V 13.000 C 217.500 13.100 217.600 13.000 217.500 13.000 H 211.700 C 211.600 13.000 211.700 13.100 211.700 13.000 V 10.100 C 211.700 10.045 211.655 10.000 211.600 10.000 H 202.600 C 202.545 10.000 202.500 10.045 202.500 10.100 V 13.000 C 202.500 13.100 202.600 13.000 202.500 13.000 H 196.700 C 196.600 13.000 196.700 13.100 196.700 13.000 V 10.100 C 196.700 10.045 196.655 10.000 196.600 10.000 H 187.600 C 187.545 10.000 187.500 10.045 187.500 10.100 V 13.000 C 187.500 13.100 187.600 13.000 187.500 13.000 H 181.700 C 181.600 13.000 181.700 13.100 181.700 13.000 V 10.100 C 181.700 10.045 181.655 10.000 181.600 10.000 H 172.600 C 172.545 10.000 172.500 10.045 172.500 10.100 V 13.000 C 172.500 13.100 172.600 13.000 172.500 13.000 H 166.700 C 166.600 13.000 166.700 13.100 166.700 13.000 V 10.100 C 166.700 10.045 166.655 10.000 166.600 10.000 H 157.600 C 157.545 10.000 157.500 10.045 157.500 10.100 V 13.000 C 157.500 13.100 157.600 13.000 157.500 13.000 H 151.700 C 151.600 13.000 151.700 13.100 151.700 13.000 V 10.100 C 151.700 10.045 151.655 10.000 151.600 10.000 H 142.600 C 142.545 10.000 142.500 10.045 142.500 10.100 V 13.000 C 142.500 13.100 142.600 13.000 142.500 13.000 H 136.700 C 136.600 13.000 136.700 13.100 136.700 13.000 V 10.100 C 136.700 10.045 136.655 10.000 136.600 10.000 H 127.600 C 127.545 10.000 127.500 10.045 127.500 10.100 V 13.000 C 127.500 13.100 127.600 13.000 127.500 13.000 H 121.700 C 121.600 13.000 121.700 13.100 121.700 13.000 V 10.100 C 121.700 10.045 121.655 10.000 121.600 10.000 H 112.600 C 112.545 10.000 112.500 10.045 112.500 10.100 V 13.000 C 112.500 13.100 112.600 13.000 112.500 13.000 H 106.700 C 106.600 13.000 106.700 13.100 106.700 13.000 V 10.100 C 106.700 10.045 106.655 10.000 106.600 10.000 H 97.600 C 97.545 10.000 97.500 10.045 97.500 10.100 V 13.000 C 97.500 13.100 97.600 13.000 97.500 13.000 H 91.700 C 91.600 13.000 91.700 13.100 91.700 13.000 V 10.100 C 91.700 10.045 91.655 10.000 91.600 10.000 H 82.600 C 82.545 10.000 82.500 10.045 82.500 10.100 V 13.000 C 82.500 13.100 82.600 13.000 82.500 13.000 H 76.700 C 76.600 13.000 76.700 13.100 76.700 13.000 V 10.100 C 76.700 10.045 76.655 10.000 76.600 10.000 H 67.600 C 67.545 10.000 67.500 10.045 67.500 10.100 V 13.000 C 67.500 13.100 67.600 13.000 67.500 13.000 H 61.700 C 61.600 13.000 61.700 13.100 61.700 13.000 V 10.100 C 61.700 10.045 61.655 10.000 61.600 10.000 H 52.600 C 52.545 10.000 52.500 10.045 52.500 10.100 V 13.000 C 52.500 13.100 52.600 13.000 52.500 13.000 H 46.700 C 46.600 13.000 46.700 13.100 46.700 13.000 V 10.100 C 46.700 10.045 46.655 10.000 46.600 10.000 H 37.600 C 37.545 10.000 37.500 10.045 37.500 10.100 V 13.000 C 37.500 13.100 37.600 13.000 37.500 13.000 H 31.700 C 31.600 13.000 31.700 13.100 31.700 13.000 V 10.100 C 31.700 10.045 31.655 10.000 31.600 10.000 H 22.600 C 22.545 10.000 22.500 10.045 22.500 10.100 V 13.000 C 22.500 13.100 22.600 13.000 22.500 13.000 H 13.100 C 13.045 13.000 13.000 13.045 13.000 13.100 V 16.000 C 13.000 16.100 13.100 16.000 13.000 16.000 H 10.100 C 10.045 16.000 10.000 16.045 10.000 16.100 V 22.100 C 10.000 22.155 10.045 22.200 10.100 22.200 H 13.000 C 13.100 22.200 13.000 22.100 13.000 22.200 V 204.073 C 13.000 204.100 13.013 204.050 13.000 204.073 L 12.321 205.250 C 12.303 205.281 12.303 205.319 12.321 205.350 L 13.013 206.550 C 13.031 206.581 13.064 206.600 13.100 206.600 H 14.600 C 14.655 206.600 14.700 206.555 14.700 206.500 V 189.100 C 14.700 188.986 14.730 188.874 14.787 188.775 C 14.844 188.676 14.926 188.594 15.025 188.537 C 15.124 188.480 15.236 188.450 15.350 188.450 C 15.464 188.450 15.576 188.480 15.675 188.537 C 15.774 188.594 15.856 188.676 15.913 188.775 C 15.970 188.874 16.000 188.986 16.000 189.100 V 207.000 C 16.000 207.100 16.100 207.000 16.000 207.000 H 10.100 C 10.045 207.000 10.000 207.045 10.000 207.100 V 210.100 C 10.000 210.155 10.045 210.200 10.100 210.200 H 13.100 Z" stroke="rgb(0,0,0)" stroke-width="0.20" />
</g>
<g id="p-5" style="fill:none;stroke-linecap:round;stroke-linejoin:round;">
  <path d="M 277.800 600.200 H 274.900 C 274.800 600.200 274.900 600.300 274.900 600.200 V 597.400 C 274.900 597.300 274.800 597.400 274.900 597.400 H 280.700 C 280.800 597.400 280.700 597.300 280.700 597.400 V 600.200 C 280.700 600.300 280.800 600.200 280.700 600.200 H 277.800 Z" stroke="rgb(0,0,255)" stroke-width="0.20" />
  <path d="M 289.800 600.200 H 286.900 C 286.800 600.200 286.900 600.300 286.900 600.200 V 597.400 C 286.900 597.300 286.800 597.400 286.900 597.400 H 292.700 C 292.800 597.400 292.700 597.300 292.700 597.400 V 600.200 C 292.700 600.300 292.800 600.200 292.700 600.200 H 289.800 Z" stroke="rgb(0,0,255)" stroke-width="0.20" />
  <path d="M 301.800 600.200 H 298.900 C 298.800 600.200 298.900 600.300 298.900 600.200 V 597.400 C 298.900 597.300 298.800 597.400 298.900 597.400 H 304.700 C 304.800 597.400 304.700 597.300 304.700 597.400 V 600.200 C 304.700 600.300 304.800 600.200 304.700 600.200 H 301.800 Z" stroke="rgb(0,0,255)" stroke-width="0.20" />
  <path d="M 313.800 600.200 H 310.900 C 310.800 600.200 310.900 600.300 310.900 600.200 V 597.400 C 310.900 597.300 310.800 597.400 310.900 597.400 H 316.700 C 316.800 597.400 316.700 597.300 316.700 597.400 V 600.200 C 316.700 600.300 316.800 600.200 316.700 600.200 H 313.800 Z" stroke="rgb(0,0,255)" stroke-width="0.20" />
  <path d="M 325.800 600.200 H 322.900 C 322.800 600.200 322.900 600.300 322.900 600.200 V 597.400 C 322.900 597.300 322.800 597.400 322.900 597.400 H 328.700 C 328.800 597.400 328.700 597.300 328.700 597.400 V 600.200 C 328.700 600.300 328.800 600.200 328.700 600.200 H 325.800 Z" stroke="rgb(0,0,255)" stroke-width="0.20" />
  <path d="M 337.800 600.200 H 334.900 C 334.800 600.200 334.900 600.300 334.900 600.200 V 597.400 C 334.900 597.300 334.800 597.400 334.900 597.400 H 340.700 C 340.800 597.400 340.700 597.300 340.700 597.400 V 600.200 C 340.700 600.300 340.800 600.200 340.700 600.200 H 337.800 Z" stroke="rgb(0,0,255)" stroke-width="0.20" />
  <path d="M 349.800 600.200 H 346.900 C 346.800 600.200 346.900 600.300 346.900 600.200 V 597.400 C 346.900 597.300 346.800 597.400 346.900 597.400 H 352.700 C 352.800 597.400 352.700 597.300 352.700 597.400 V 600.200 C 352.700 600.300 352.800 600.200 352.700 600.200 H 349.800 Z" stroke="rgb(0,0,255)" stroke-width="0.20" />
  <path d="M 361.800 600.200 H 358.900 C 358.800 600.200 358.900 600.300 358.900 600.200 V 597.400 C 358.900 597.300 358.800 597.400 358.900 597.400 H 364.700 C 364.800 597.400 364.700 597.300 364.700 597.400 V 600.200 C 364.700 600.300 364.800 600.200 364.700 600.200 H 361.800 Z" stroke="rgb(0,0,255)" stroke-width="0.20" />
  <path d="M 373.800 600.200 H 370.900 C 370.800 600.200 370.900 600.300 370.900 600.200 V 597.400 C 370.900 597.300 370.800 597.400 370.900 597.400 H 376.700 C 376.800 597.400 376.700 597.300 376.700 597.400 V 600.200 C 376.700 600.300 376.800 600.200 376.700 600.200 H 373.800 Z" stroke="rgb(0,0,255)" stroke-width="0.20" />
  <path d="M 385.800 600.200 H 382.900 C 382.800 600.200 382.900 600.300 382.900 600.200 V 597.400 C 382.900 597.300 382.800 597.400 382.900 597.400 H 388.700 C 388.800 597.400 388.700 597.300 388.700 597.400 V 600.200 C 388.700 600.300 388.800 600.200 388.700 600.200 H 385.800 Z" stroke="rgb(0,0,255)" stroke-width="0.20" />
  <path d="M 397.800 600.200 H 394.900 C 394.800 600.200 394.900 600.300 394.900 600.200 V 597.400 C 394.900 597.300 394.800 597.400 394.900 597.400 H 400.700 C 400.800 597.400 400.700 597.300 400.700 597.400 V 600.200 C 400.700 600.300 400.800 600.200 400.700 600.200 H 397.800 Z" stroke="rgb(0,0,255)" stroke-width="0.20" />
  <path d="M 409.800 600.200 H 406.900 C 406.800 600.200 406.900 600.300 406.900 600.200 V 597.400 C 406.900 597.300 406.800 597.400 406.900 597.400 H 412.700 C 412.800 597.400 412.700 597.300 412.700 597.400 V 600.200 C 412.700 600.300 412.800 600.200 412.700 600.200 H 409.800 Z" stroke="rgb(0,0,255)" stroke-width="0.20" />
  <path d="M 421.800 600.200 H 418.900 C 418.800 600.200 418.900 600.300 418.900 600.200 V 597.400 C 418.900 597.300 418.800 597.400 418.900 597.400 H 424.700 C 424.800 597.400 424.700 597.300 424.700 597.400 V 600.200 C 424.700 600.300 424.800 600.200 424.700 600.200 H 421.800 Z" stroke="rgb(0,0,255)" stroke-width="0.20" />
  <path d="M 433.800 600.200 H 430.900 C 430.800 600.200 430.900 600.300 430.900 600.200 V 597.400 C 430.900 597.300 430.800 597.400 430.900 597.400 H 436.700 C 436.800 597.400 436.700 597.300 436.700 597.400 V 600.200 C 436.700 600.300 436.800 600.200 436.700 600.200 H 433.800 Z" stroke="rgb(0,0,255)" stroke-width="0.20" />
  <path d="M 445.800 600.200 H 442.900 C 442.800 600.200 442.900 600.300 442.900 600.200 V 597.400 C 442.900 597.300 442.800 597.400 442.900 597.400 H 448.700 C 448.800 597.400 448.700 597.300 448.700 597.400 V 600.200 C 448.700 600.300 448.800 600.200 448.700 600.200 H 445.800 Z" stroke="rgb(0,0,255)" stroke-width="0.20" />
  <path d="M 264.800 609.300 H 276.800 C 277.871 609.300 278.923 609.018 279.850 608.483 C 280.777 607.947 281.547 607.177 282.083 606.250 C 282.601 605.353 283.345 604.608 284.242 604.090 C 285.139 603.573 286.157 603.300 287.192 603.300 H 436.408 C 437.443 603.300 438.461 603.573 439.358 604.090 C 440.255 604.608 440.999 605.353 441.517 606.250 C 442.053 607.177 442.823 607.947 443.750 608.483 C 444.677 609.018 445.729 609.300 446.800 609.300 H 458.800 C 458.855 609.300 458.900 609.255 458.900 609.200 V 601.300 C 458.900 601.200 458.800 601.300 458.900 601.300 H 461.800 C 461.855 601.300 461.900 601.255 461.900 601.200 V 595.200 C 461.900 595.145 461.855 595.100 461.800 595.100 H 458.900 C 458.800 595.100 458.900 595.200 458.900 595.100 V 589.300 C 458.900 589.200 458.800 589.300 458.900 589.300 H 461.800 C 461.855 589.300 461.900 589.255 461.900 589.200 V 583.200 C 461.900 583.145 461.855 583.100 461.800 583.100 H 458.900 C 458.800 583.100 458.900 583.200 458.900 583.100 V 577.300 C 458.900 577.200 458.800 577.300 458.900 577.300 H 461.800 C 461.855 577.300 461.900 577.255 461.900 577.200 V 571.200 C 461.900 571.145 461.855 571.100 461.800 571.100 H 458.900 C 458.800 571.100 458.900 571.200 458.900 571.100 V 565.300 C 458.900 565.200 458.800 565.300 458.900 565.300 H 461.800 C 461.855 565.300 461.900 565.255 461.900 565.200 V 559.200 C 461.900 559.145 461.855 559.100 461.800 559.100 H 458.900 C 458.800 559.100 458.900 559.200 458.900 559.100 V 553.300 C 458.900 553.200 458.800 553.300 458.900 553.300 H 461.800 C 461.855 553.300 461.900 553.255 461.900 553.200 V 547.200 C 461.900 547.145 461.855 547.100 461.800 547.100 H 458.900 C 458.800 547.100 458.900 547.200 458.900 547.100 V 541.300 C 458.900 541.200 458.800 541.300 458.900 541.300 H 461.800 C 461.855 541.300 461.900 541.255 461.900 541.200 V 535.200 C 461.900 535.145 461.855 535.100 461.800 535.100 H 458.900 C 458.800 535.100 458.900 535.200 458.900 535.100 V 529.300 C 458.900 529.200 458.800 529.300 458.900 529.300 H 461.800 C 461.855 529.300 461.900 529.255 461.900 529.200 V 523.200 C 461.900 523.145 461.855 523.100 461.800 523.100 H 458.900 C 458.800 523.100 458.900 523.200 458.900 523.100 V 515.200 V 515.275 C 458.900 515.220 458.855 515.175 458.800 515.175 H 458.750 C 458.650 515.175 458.750 515.275 458.750 515.175 V 512.225 C 458.750 512.125 458.650 512.225 458.750 512.225 H 461.800 C 461.855 512.225 461.900 512.180 461.900 512.125 V 509.200 C 461.900 509.145 461.855 509.100 461.800 509.100 H 282.300 C 282.107 509.100 281.917 509.151 281.750 509.247 C 281.583 509.344 281.444 509.483 281.347 509.650 C 281.251 509.817 281.200 510.007 281.200 510.200 V 515.175 C 281.200 515.275 281.300 515.175 281.200 515.175 H 267.750 C 267.650 515.175 267.750 515.275 267.750 515.175 V 512.225 C 267.750 512.125 267.650 512.225 267.750 512.225 H 272.650 C 272.843 512.225 273.033 512.174 273.200 512.078 C 273.367 511.981 273.506 511.842 273.603 511.675 C 273.699 511.508 273.750 511.318 273.750 511.125 V 510.200 C 273.750 510.007 273.699 509.817 273.603 509.650 C 273.506 509.483 273.367 509.344 273.200 509.247 C 273.033 509.151 272.843 509.100 272.650 509.100 H 264.800 C 264.745 509.100 264.700 509.145 264.700 509.200 V 515.200 V 523.100 C 264.700 523.200 264.800 523.100 264.700 523.100 H 261.800 C 261.745 523.100 261.700 523.145 261.700 523.200 V 529.200 C 261.700 529.255 261.745 529.300 261.800 529.300 H 264.700 C 264.800 529.300 264.700 529.200 264.700 529.300 V 535.100 C 264.700 535.200 264.800 535.100 264.700 535.100 H 261.800 C 261.745 535.100 261.700 535.145 261.700 535.200 V 541.200 C 261.700 541.255 261.745 541.300 261.800 541.300 H 264.700 C 264.800 541.300 264.700 541.200 264.700 541.300 V 547.100 C 264.700 547.200 264.800 547.100 264.700 547.100 H 261.800 C 261.745 547.100 261.700 547.145 261.700 547.200 V 553.200 C 261.700 553.255 261.745 553.300 261.800 553.300 H 264.700 C 264.800 553.300 264.700 553.200 264.700 553.300 V 559.100 C 264.700 559.200 264.800 559.100 264.700 559.100 H 261.800 C 261.745 559.100 261.700 559.145 261.700 559.200 V 565.200 C 261.700 565.255 261.745 565.300 261.800 565.300 H 264.700 C 264.800 565.300 264.700 565.200 264.700 565.300 V 571.100 C 264.700 571.200 264.800 571.100 264.700 571.100 H 261.800 C 261.745 571.100 261.700 571.145 261.700 571.200 V 577.200 C 261.700 577.255 261.745 577.300 261.800 577.300 H 264.700 C 264.800 577.300 264.700 577.200 264.700 577.300 V 583.100 C 264.700 583.200 264.800 583.100 264.700 583.100 H 261.800 C 261.745 583.100 261.700 583.145 261.700 583.200 V 589.200 C 261.700 589.255 261.745 589.300 261.800 589.300 H 264.700 C 264.800 589.300 264.700 589.200 264.700 589.300 V 595.100 C 264.700 595.200 264.800 595.100 264.700 595.100 H 261.800 C 261.745 595.100 261.700 595.145 261.700 595.200 V 601.200 C 261.700 601.255 261.745 601.300 261.800 601.300 H 264.700 C 264.800 601.300 264.700 601.200 264.700 601.300 V 609.200 C 264.700 609.255 264.745 609.300 264.800 609.300 Z" stroke="rgb(0,0,0)" stroke-width="0.20" />
  <path d="M 457.000 512.150 H 457.500 C 457.600 512.150 457.500 512.050 457.500 512.150 V 515.250 C 457.500 515.350 457.600 515.250 457.500 515.250 H 456.500 C 456.400 515.250 456.500 515.350 456.500 515.250 V 512.150 C 456.500 512.050 456.400 512.150 456.500 512.150 H 457.000 Z" stroke="rgb(0,0,255)" stroke-width="0.20" />
</g>
<g id="p-6" style="fill:none;stroke-linecap:round;stroke-linejoin:round;">
  <path d="M 277.800 498.500 H 274.900 C 274.800 498.500 274.900 498.600 274.900 498.500 V 495.700 C 274.900 495.600 274.800 495.700 274.900 495.700 H 280.700 C 280.800 495.700 280.700 495.600 280.700 495.700 V 498.500 C 280.700 498.600 280.800 498.500 280.700 498.500 H 277.800 Z" stroke="rgb(0,0,255)" stroke-width="0.20" />
  <path d="M 289.800 498.500 H 286.900 C 286.800 498.500 286.900 498.600 286.900 498.500 V 495.700 C 286.900 495.600 286.800 495.700 286.900 495.700 H 292.700 C 292.800 495.700 292.700 495.600 292.700 495.700 V 498.500 C 292.700 498.600 292.800 498.500 292.700 498.500 H 289.800 Z" stroke="rgb(0,0,255)" stroke-width="0.20" />
  <path d="M 301.800 498.500 H 298.900 C 298.800 498.500 298.900 498.600 298.900 498.500 V 495.700 C 298.900 495.600 298.800 495.700 298.900 495.700 H 304.700 C 304.800 495.700 304.700 495.600 304.700 495.700 V 498.500 C 304.700 498.600 304.800 498.500 304.700 498.500 H 301.800 Z" stroke="rgb(0,0,255)" stroke-width="0.20" />
  <path d="M 313.800 498.500 H 310.900 C 310.800 498.500 310.900 498.600 310.900 498.500 V 495.700 C 310.900 495.600 310.800 495.700 310.900 495.700 H 316.700 C 316.800 495.700 316.700 495.600 316.700 495.700 V 498.500 C 316.700 498.600 316.800 498.500 316.700 498.500 H 313.800 Z" stroke="rgb(0,0,255)" stroke-width="0.20" />
  <path d="M 325.800 498.500 H 322.900 C 322.800 498.500 322.900 498.600 322.900 498.500 V 495.700 C 322.900 495.600 322.800 495.700 322.900 495.700 H 328.700 C 328.800 495.700 328.700 495.600 328.700 495.700 V 498.500 C 328.700 498.600 328.800 498.500 328.700 498.500 H 325.800 Z" stroke="rgb(0,0,255)" stroke-width="0.20" />
  <path d="M 337.800 498.500 H 334.900 C 334.800 498.500 334.900 498.600 334.900 498.500 V 495.700 C 334.900 495.600 334.800 495.700 334.900 495.700 H 340.700 C 340.800 495.700 340.700 495.600 340.700 495.700 V 498.500 C 340.700 498.600 340.800 498.500 340.700 498.500 H 337.800 Z" stroke="rgb(0,0,255)" stroke-width="0.20" />
  <path d="M 349.800 498.500 H 346.900 C 346.800 498.500 346.900 498.600 346.900 498.500 V 495.700 C 346.900 495.600 346.800 495.700 346.900 495.700 H 352.700 C 352.800 495.700 352.700 495.600 352.700 495.700 V 498.500 C 352.700 498.600 352.800 498.500 352.700 498.500 H 349.800 Z" stroke="rgb(0,0,255)" stroke-width="0.20" />
  <path d="M 361.800 498.500 H 358.900 C 358.800 498.500 358.900 498.600 358.900 498.500 V 495.700 C 358.900 495.600 358.800 495.700 358.900 495.700 H 364.700 C 364.800 495.700 364.700 495.600 364.700 495.700 V 498.500 C 364.700 498.600 364.800 498.500 364.700 498.500 H 361.800 Z" stroke="rgb(0,0,255)" stroke-width="0.20" />
  <path d="M 373.800 498.500 H 370.900 C 370.800 498.500 370.900 498.600 370.900 498.500 V 495.700 C 370.900 495.600 370.800 495.700 370.900 495.700 H 376.700 C 376.800 495.700 376.700 495.600 376.700 495.700 V 498.500 C 376.700 498.600 376.800 498.500 376.700 498.500 H 373.800 Z" stroke="rgb(0,0,255)" stroke-width="0.20" />
  <path d="M 385.800 498.500 H 382.900 C 382.800 498.500 382.900 498.600 382.900 498.500 V 495.700 C 382.900 495.600 382.800 495.700 382.900 495.700 H 388.700 C 388.800 495.700 388.700 495.600 388.700 495.700 V 498.500 C 388.700 498.600 388.800 498.500 388.700 498.500 H 385.800 Z" stroke="rgb(0,0,255)" stroke-width="0.20" />
  <path d="M 397.800 498.500 H 394.900 C 394.800 498.500 394.900 498.600 394.900 498.500 V 495.700 C 394.900 495.600 394.800 495.700 394.900 495.700 H 400.700 C 400.800 495.700 400.700 495.600 400.700 495.700 V 498.500 C 400.700 498.600 400.800 498.500 400.700 498.500 H 397.800 Z" stroke="rgb(0,0,255)" stroke-width="0.20" />
  <path d="M 409.800 498.500 H 406.900 C 406.800 498.500 406.900 498.600 406.900 498.500 V 495.700 C 406.900 495.600 406.800 495.700 406.900 495.700 H 412.700 C 412.800 495.700 412.700 495.600 412.700 495.700 V 498.500 C 412.700 498.600 412.800 498.500 412.700 498.500 H 409.800 Z" stroke="rgb(0,0,255)" stroke-width="0.20" />
  <path d="M 421.800 498.500 H 418.900 C 418.800 498.500 418.900 498.600 418.900 498.500 V 495.700 C 418.900 495.600 418.800 495.700 418.900 495.700 H 424.700 C 424.800 495.700 424.700 495.600 424.700 495.700 V 498.500 C 424.700 498.600 424.800 498.500 424.700 498.500 H 421.800 Z" stroke="rgb(0,0,255)" stroke-width="0.20" />
  <path d="M 433.800 498.500 H 430.900 C 430.800 498.500 430.900 498.600 430.900 498.500 V 495.700 C 430.900 495.600 430.800 495.700 430.900 495.700 H 436.700 C 436.800 495.700 436.700 495.600 436.700 495.700 V 498.500 C 436.700 498.600 436.800 498.500 436.700 498.500 H 433.800 Z" stroke="rgb(0,0,255)" stroke-width="0.20" />
  <path d="M 445.800 498.500 H 442.900 C 442.800 498.500 442.900 498.600 442.900 498.500 V 495.700 C 442.900 495.600 442.800 495.700 442.900 495.700 H 448.700 C 448.800 495.700 448.700 495.600 448.700 495.700 V 498.500 C 448.700 498.600 448.800 498.500 448.700 498.500 H 445.800 Z" stroke="rgb(0,0,255)" stroke-width="0.20" />
  <path d="M 264.800 507.600 H 276.800 C 277.871 507.600 278.923 507.318 279.850 506.783 C 280.777 506.247 281.547 505.477 282.083 504.550 C 282.601 503.653 283.345 502.908 284.242 502.390 C 285.139 501.873 286.157 501.600 287.192 501.600 H 436.408 C 437.443 501.600 438.461 501.873 439.358 502.390 C 440.255 502.908 440.999 503.653 441.517 504.550 C 442.053 505.477 442.823 506.247 443.750 506.783 C 444.677 507.318 445.729 507.600 446.800 507.600 H 458.800 C 458.855 507.600 458.900 507.555 458.900 507.500 V 499.600 C 458.900 499.500 458.800 499.600 458.900 499.600 H 461.800 C 461.855 499.600 461.900 499.555 461.900 499.500 V 493.500 C 461.900 493.445 461.855 493.400 461.800 493.400 H 458.900 C 458.800 493.400 458.900 493.500 458.900 493.400 V 487.600 C 458.900 487.500 458.800 487.600 458.900 487.600 H 461.800 C 461.855 487.600 461.900 487.555 461.900 487.500 V 481.500 C 461.900 481.445 461.855 481.400 461.800 481.400 H 458.900 C 458.800 481.400 458.900 481.500 458.900 481.400 V 475.600 C 458.900 475.500 458.800 475.600 458.900 475.600 H 461.800 C 461.855 475.600 461.900 475.555 461.900 475.500 V 469.500 C 461.900 469.445 461.855 469.400 461.800 469.400 H 458.900 C 458.800 469.400 458.900 469.500 458.900 469.400 V 463.600 C 458.900 463.500 458.800 463.600 458.900 463.600 H 461.800 C 461.855 463.600 461.900 463.555 461.900 463.500 V 457.500 C 461.900 457.445 461.855 457.400 461.800 457.400 H 458.900 C 458.800 457.400 458.900 457.500 458.900 457.400 V 451.600 C 458.900 451.500 458.800 451.600 458.900 451.600 H 461.800 C 461.855 451.600 461.900 451.555 461.900 451.500 V 445.500 C 461.900 445.445 461.855 445.400 461.800 445.400 H 458.900 C 458.800 445.400 458.900 445.500 458.900 445.400 V 439.600 C 458.900 439.500 458.800 439.600 458.900 439.600 H 461.800 C 461.855 439.600 461.900 439.555 461.900 439.500 V 433.500 C 461.900 433.445 461.855 433.400 461.800 433.400 H 458.900 C 458.800 433.400 458.900 433.500 458.900 433.400 V 427.600 C 458.900 427.500 458.800 427.600 458.900 427.600 H 461.800 C 461.855 427.600 461.900 427.555 461.900 427.500 V 421.500 C 461.900 421.445 461.855 421.400 461.800 421.400 H 458.900 C 458.800 421.400 458.900 421.500 458.900 421.400 V 413.500 V 407.500 C 458.900 407.445 458.855 407.400 458.800 407.400 H 450.950 C 450.757 407.400 450.567 407.451 450.400 407.547 C 450.233 407.644 450.094 407.783 449.997 407.950 C 449.901 408.117 449.850 408.307 449.850 408.500 V 409.425 C 449.850 409.618 449.901 409.808 449.997 409.975 C 450.094 410.142 450.233 410.281 450.400 410.378 C 450.567 410.474 450.757 410.525 450.950 410.525 H 455.850 C 455.950 410.525 455.850 410.425 455.850 410.525 V 413.475 C 455.850 413.575 455.950 413.475 455.850 413.475 H 442.400 C 442.300 413.475 442.400 413.575 442.400 413.475 V 408.500 C 442.400 408.307 442.349 408.117 442.253 407.950 C 442.156 407.783 442.017 407.644 441.850 407.547 C 441.683 407.451 441.493 407.400 441.300 407.400 H 261.800 C 261.745 407.400 261.700 407.445 261.700 407.500 V 410.425 C 261.700 410.480 261.745 410.525 261.800 410.525 H 264.850 C 264.950 410.525 264.850 410.425 264.850 410.525 V 413.475 C 264.850 413.575 264.950 413.475 264.850 413.475 H 264.800 C 264.745 413.475 264.700 413.520 264.700 413.575 V 413.500 V 421.400 C 264.700 421.500 264.800 421.400 264.700 421.400 H 261.800 C 261.745 421.400 261.700 421.445 261.700 421.500 V 427.500 C 261.700 427.555 261.745 427.600 261.800 427.600 H 264.700 C 264.800 427.600 264.700 427.500 264.700 427.600 V 433.400 C 264.700 433.500 264.800 433.400 264.700 433.400 H 261.800 C 261.745 433.400 261.700 433.445 261.700 433.500 V 439.500 C 261.700 439.555 261.745 439.600 261.800 439.600 H 264.700 C 264.800 439.600 264.700 439.500 264.700 439.600 V 445.400 C 264.700 445.500 264.800 445.400 264.700 445.400 H 261.800 C 261.745 445.400 261.700 445.445 261.700 445.500 V 451.500 C 261.700 451.555 261.745 451.600 261.800 451.600 H 264.700 C 264.800 451.600 264.700 451.500 264.700 451.600 V 457.400 C 264.700 457.500 264.800 457.400 264.700 457.400 H 261.800 C 261.745 457.400 261.700 457.445 261.700 457.500 V 463.500 C 261.700 463.555 261.745 463.600 261.800 463.600 H 264.700 C 264.800 463.600 264.700 463.500 264.700 463.600 V 469.400 C 264.700 469.500 264.800 469.400 264.700 469.400 H 261.800 C 261.745 469.400 261.700 469.445 261.700 469.500 V 475.500 C 261.700 475.555 261.745 475.600 261.800 475.600 H 264.700 C 264.800 475.600 264.700 475.500 264.700 475.600 V 481.400 C 264.700 481.500 264.800 481.400 264.700 481.400 H 261.800 C 261.745 481.400 261.700 481.445 261.700 481.500 V 487.500 C 261.700 487.555 261.745 487.600 261.800 487.600 H 264.700 C 264.800 487.600 264.700 487.500 264.700 487.600 V 493.400 C 264.700 493.500 264.800 493.400 264.700 493.400 H 261.800 C 261.745 493.400 261.700 493.445 261.700 493.500 V 499.500 C 261.700 499.555 261.745 499.600 261.800 499.600 H 264.700 C 264.800 499.600 264.700 499.500 264.700 499.600 V 507.500 C 264.700 507.555 264.745 507.600 264.800 507.600 Z" stroke="rgb(0,0,0)" stroke-width="0.20" />
  <path d="M 266.600 410.450 H 267.100 C 267.200 410.450 267.100 410.350 267.100 410.450 V 413.550 C 267.100 413.650 267.200 413.550 267.100 413.550 H 266.100 C 266.000 413.550 266.100 413.650 266.100 413.550 V 410.450 C 266.100 410.350 266.000 410.450 266.100 410.450 H 266.600 Z" stroke="rgb(0,0,255)" stroke-width="0.20" />
</g>
</svg>